<?xml version="1.0" encoding="UTF-8" standalone="no"?>
<!-- Created with Inkscape (http://www.inkscape.org/) -->

<svg
   xmlns:dc="http://purl.org/dc/elements/1.1/"
   xmlns:cc="http://creativecommons.org/ns#"
   xmlns:rdf="http://www.w3.org/1999/02/22-rdf-syntax-ns#"
   xmlns:svg="http://www.w3.org/2000/svg"
   xmlns="http://www.w3.org/2000/svg"
   xmlns:sodipodi="http://sodipodi.sourceforge.net/DTD/sodipodi-0.dtd"
   xmlns:inkscape="http://www.inkscape.org/namespaces/inkscape"
   width="500mm"
   height="500mm"
   viewBox="0 0 500 500"
   version="1.1"
   id="svg4896"
   inkscape:version="0.92.1 r15371"
   sodipodi:docname="ghoul_smile.svg">
  <defs
     id="defs4890" />
  <sodipodi:namedview
     id="base"
     pagecolor="#e0e0e0"
     bordercolor="#666666"
     borderopacity="1.0"
     inkscape:pageopacity="0"
     inkscape:pageshadow="2"
     inkscape:zoom="0.20430083"
     inkscape:cx="491.85261"
     inkscape:cy="1142.7238"
     inkscape:document-units="mm"
     inkscape:current-layer="layer1"
     showgrid="false"
     inkscape:window-width="1366"
     inkscape:window-height="715"
     inkscape:window-x="-8"
     inkscape:window-y="-8"
     inkscape:window-maximized="1" />
  <metadata
     id="metadata4893">
    <rdf:RDF>
      <cc:Work
         rdf:about="">
        <dc:format>image/svg+xml</dc:format>
        <dc:type
           rdf:resource="http://purl.org/dc/dcmitype/StillImage" />
        <dc:title></dc:title>
      </cc:Work>
    </rdf:RDF>
  </metadata>
  <g
     inkscape:label="Layer 1"
     inkscape:groupmode="layer"
     id="layer1"
     transform="translate(0,203)">
    <path
       style="fill:#060606;stroke-width:1.01806021"
       d="m 91.687803,-138.83626 c -6.18766,-0.003 -8.06362,0.38679 -12.65064,2.63814 -19.94884,9.79483 -36.74914,44.684353 -38.51759,79.990323 -1.39523,27.68405 1.47055,45.86996 9.8585,62.8700198 3.69895,7.4938802 5.95006,10.6821902 11.60041,16.4622702 10.47125,10.71233 24.82631,19.25152 42.876607,25.50057 6.73434,3.16884 26.41735,6.97194 48.12707,4.17127 19.67364,-4.24743 35.6255,-12.90759 51.28523,-27.83444 17.37712,-16.5625702 25.55018,-30.5474202 28.94558,-49.55473 0.50932,-2.88644 0.50932,-2.89029 -2.27742,-1.91813 -1.678,0.5886 -6.45169,0.77479 -11.99837,0.47929 -24.73382,-1.32351 -46.9865,-15.7181 -66.47155,-43.00586 -5.06787,-7.09675 -8.23708,-12.2504 -25.26356,-41.044023 -6.61758,-11.18899 -16.5836,-22.29845 -23.37271,-26.05302 -4.266527,-2.36005 -5.788007,-2.697 -12.141557,-2.70036 z m 316.801917,0 c -6.35175,0.003 -7.8808,0.33994 -12.14733,2.70036 -6.78911,3.75469 -16.74936,14.86391 -23.36694,26.05302 -17.02661,28.793743 -20.20338,33.947143 -25.26921,41.044143 -19.48505,27.28751 -41.73785,41.68258 -66.47167,43.00562 -5.54668,0.2955 -10.31473,0.10811 -11.99825,-0.47929 -2.78842,-0.9706 -2.79407,-0.96939 -2.27754,1.91788 3.39552,19.0075598 11.56846,32.9922898 28.94378,49.55486 15.66153,14.92673 31.61351,23.58689 51.28703,27.83456 21.70972,2.80055 41.39273,-1.00063 48.12719,-4.17152 18.0503,-6.24892 32.41089,-14.78799 42.88214,-25.50056 5.65035,-5.77985 7.89581,-8.96839 11.5968,-16.4622702 8.39348,-16.9996998 11.24412,-35.1857298 9.85658,-62.8700198 -1.77229,-35.30585 -18.56874,-70.195253 -38.51758,-79.989963 -4.58895,-2.25243 -6.45542,-2.64199 -12.645,-2.63839 z m 81.70327,162.525693 c -4.08742,0 -5.44301,2.9895 -8.21257,18.1011 -2.79599,15.2596 -7.17003,30.76461 -8.67829,30.76461 -0.4901,0 -3.44633,-2.82086 -6.57422,-6.27596 -6.24231,-6.8983 -7.24907,-7.08774 -2.79971,-0.52013 1.58371,2.34072 3.98184,6.23283 5.32049,8.65343 l 2.43394,4.40107 -3.92334,7.62913 -3.92346,7.62278 -2.66962,-2.48295 c -3.2975,-3.07179 -7.20774,-5.15196 -8.06927,-4.28959 -0.35796,0.35676 -0.18859,0.96579 0.41443,1.35366 1.62142,1.07631 6.51199,8.64983 6.51199,10.08109 0,1.587547 -6.21793,10.484577 -7.32655,10.484577 -0.45286,0 -0.81083,-0.40361 -0.81083,-0.89371 0,-1.36496 -6.61565,-8.26831 -7.92031,-8.26831 -0.69792,0 -0.18859,2.14864 1.33865,5.34475 3.63865,7.81449 3.32765,9.70403 -2.55658,15.50009 -2.78649,2.74493 -5.1922,4.79015 -5.34488,4.54389 -0.18859,-0.24745 -1.79115,-3.49294 -3.63684,-7.21315 -1.84762,-3.72033 -4.3344,-7.61412 -5.51846,-8.65331 -2.10972,-1.84953 -2.13795,-1.84389 -1.31967,0.15136 2.50937,6.10117 4.71519,13.30303 5.23184,17.08943 l 0.585,4.28923 -7.89581,6.40629 c -4.34389,3.52333 -8.21077,6.04255 -8.59156,5.59929 -0.37719,-0.44325 -1.75332,-3.78483 -3.03539,-7.42432 -2.68475,-7.58037 -7.91467,-17.30649 -9.30606,-17.30649 -0.50932,0 0,1.72316 1.01745,3.82988 2.12101,4.15926 5.72758,15.88063 6.67223,21.67669 l 0.585,3.61919 -11.05577,7.32486 c -6.08015,4.02821 -11.28556,7.32475 -11.57025,7.32475 -0.28349,0 -0.79161,-2.17603 -1.11234,-4.83568 -0.6787,-5.57707 -4.47399,-17.5471 -8.28801,-26.17085 -3.13726,-7.09098 -4.53801,-7.0308 -1.75344,0.0721 2.85448,7.26348 5.24505,19.96902 5.24505,27.8408 v 6.87176 l -12.266,6.34418 c -6.74768,3.4879 -12.93161,6.084 -13.74232,5.77288 -0.81084,-0.31112 -1.47055,-1.8589 -1.47055,-3.43888 0,-2.46973 -4.86042,-21.03884 -8.2748,-31.61508 -2.00029,-6.18393 -1.96822,-2.64379 0,6.02141 2.68295,11.51584 3.67649,28.06952 1.88725,31.45976 -1.03666,1.97794 -3.94784,3.47792 -13.02963,6.73518 -6.42706,2.3054 -12.82782,4.46305 -14.22677,4.79219 l -2.54517,0.59581 v -13.95458 c 0,-17.87852 -2.31333,-29.08048 -9.53994,-47.43168 -2.03428,-5.1588 -2.09266,-2.3305 -0.18859,5.51846 2.87334,11.39535 5.30728,32.61113 4.57957,39.93924 -1.09312,11.03546 -2.55658,16.98636 -4.43062,17.98939 -1.58358,0.85047 -18.31036,4.12623 -21.1007,4.1344 -0.75437,0.002 -1.31979,-6.47055 -1.75343,-20.10008 -0.52734,-17.14324 -2.54145,-37.054 -3.86677,-38.38725 -0.20781,-0.21262 -0.22583,7.70505 0,17.59815 0.32073,16.96438 -0.4901,26.86264 -3.06746,37.44393 l -1.01744,4.19001 -10.11869,0.69551 c -5.56362,0.37959 -12.82602,0.3868 -16.14046,0.012 l -6.02741,-0.6823 -2.60739,-6.23847 c -5.30728,-12.70494 -9.33249,-37.17293 -8.49727,-51.60956 0.71593,-12.43766 -1.1688,-8.06651 -2.27753,5.25154 -1.60257,19.40444 -1.13156,34.06402 1.54598,48.00923 0.73515,3.80082 0.71593,3.81643 -2.68283,3.81139 -6.57229,-0.01 -31.93965,-4.18377 -33.24046,-5.46897 -3.76502,-3.71564 -9.1571,-25.43125 -10.09983,-40.69025 -0.43364,-7.14864 -0.8865,-9.52516 -1.5837,-8.28705 -1.48941,2.66433 -0.28229,35.59583 1.54598,42.09329 l 1.52713,5.45635 -3.75553,-0.60182 c -2.06828,-0.33033 -8.95926,-2.09915 -15.31473,-3.92934 l -11.55896,-3.32717 -2.48871,-6.61746 c -3.63301,-9.66102 -6.31019,-23.70509 -6.39319,-33.59506 -0.1886,-12.36427 -1.77218,-7.22036 -2.54517,7.90217 -0.43365,8.43276 -0.1886,14.34594 0.86729,20.09383 0.81083,4.47963 1.35739,8.27108 1.24423,8.42375 -0.94296,1.10634 -33.84756,-14.96133 -36.37579,-17.76596 -4.53236,-5.02499 -7.8826,-20.10848 -7.99011,-35.96028 0,-8.0742 -0.26427,-9.25104 -1.22537,-7.1263 -0.71594,1.57048 -1.1688,9.2341 -1.20664,20.00697 0,20.08146 1.14958,19.03915 -11.359197,9.73321 -14.34185,-10.66332 -19.55483,-16.05517 -21.29121,-22.03044 -1.82876,-6.31884 -4.51351,-22.12944 -4.53801,-26.79791 0,-1.819377 -0.47089,-3.308547 -1.03666,-3.308547 -1.01745,0 -0.47089,23.005737 0.62223,26.723187 1.0751,3.59468 -1.64028,1.58755 -8.82724,-6.56749 -8.07672,-9.15074 -11.37049,-15.31438 -13.99867,-26.214227 -0.94296,-3.94075 -2.11716,-7.1657 -2.58853,-7.16978 -0.79161,-0.006 -0.18859,7.80848 0.98021,12.71923 0.35796,1.55091 -0.20782,1.25877 -2.39057,-1.21673 -4.41368,-4.99543 -12.51503,-19.15242 -16.77771,-29.32432 -7.75251,-18.49343 -11.89843,-24.94176 -16.0292296,-24.94176 -2.86193,0 -2.6922,2.13843 1.09312,13.98545 6.6156596,20.70526 15.3731096,37.18206 28.2689296,53.186177 3.76117,4.6687 5.1564,7.2009 4.76612,8.65319 -1.33865,5.00409 -1.82887,17.57196 -0.71593,18.26255 0.79161,0.4889 1.14958,-0.67269 1.18802,-3.67469 0,-2.41267 0.81083,-6.13324 1.77217,-8.26855 l 1.75344,-3.88586 11.45337,11.61422 c 10.19028,10.33527 11.4535,12.01291 11.4535,15.17743 0,4.05007 5.03195,14.82127 8.28044,17.7226 l 2.1663,1.93662 -2.1663,-4.28311 c -1.98155,-3.913 -3.04488,-12.51442 -1.54598,-12.51442 0.33995,0 3.5727,2.31261 7.1699,5.13983 3.59733,2.82734 10.38825,7.64872 15.09035,10.71426 4.702087,3.06542 8.772467,6.36532 9.043937,7.33099 0.26427,0.96699 0.79161,3.27239 1.1688,5.12757 0.43365,2.13531 2.92992,5.78345 6.8099,9.93202 6.3461,6.78455 9.67375,8.81859 5.76158,3.52597 -1.43283,-1.94407 -2.39994,-5.03075 -2.70169,-8.64718 l -0.47088,-5.62416 9.03278,4.24599 c 4.96781,2.33267 13.12765,5.70164 18.13125,7.49256 l 9.10065,3.25894 1.67788,5.13982 c 1.95512,5.99919 3.28428,8.14435 9.14401,14.76157 4.7039,5.31328 6.67596,5.85239 2.94301,0.80122 -1.82887,-2.4785 -2.33039,-4.5284 -2.37747,-9.7397 0,-3.63 0.18859,-6.66936 0.45286,-6.74143 0.28229,-0.0721 7.03609,1.4046 15.01491,3.28993 13.1238,3.10182 14.50774,3.63649 14.50774,5.62404 0,1.20844 2.10023,4.98439 4.66246,8.39252 5.36566,7.13916 7.44138,8.88983 5.03952,4.24599 -1.03666,-2.00857 -1.54598,-5.01718 -1.35751,-8.00139 l 0.30151,-4.78595 3.56333,0.33515 c 1.95885,0.18859 9.74907,1.12194 17.30745,2.09194 13.0145,1.67043 13.77812,1.89674 14.46246,4.25212 0.39641,1.36868 1.99849,7.19597 3.56333,12.95503 1.56485,5.75942 2.93353,9.65285 3.02975,8.65343 0.18859,-0.99943 0.75437,-6.74311 1.47054,-12.76272 l 1.28208,-10.94381 h 16.99633 16.99634 l 1.73457,3.6563 c 1.13156,2.36739 1.60257,5.41731 1.37625,8.65331 -0.18859,2.74865 0,4.99724 0.28229,4.99712 0.33995,-3.6e-4 1.75344,-4.20383 3.12212,-9.34245 l 2.49436,-9.34234 10.622,-1.81926 c 5.84267,-1.00063 10.89348,-1.8326 11.22346,-1.85518 1.47055,-0.0721 3.2145,11.51127 2.73184,18.27492 -0.28229,4.00515 -0.18859,6.90984 0.22583,6.44965 2.20018,-2.45375 8.44069,-22.52115 7.93173,-25.50045 -0.22583,-1.28579 1.14958,-2.22972 5.30728,-3.66243 3.08055,-1.06309 9.20983,-3.26543 13.61967,-4.89153 5.82753,-2.14756 8.37847,-2.66037 9.32492,-1.87404 2.60931,2.16642 4.54365,8.03083 4.54365,13.78076 0,3.22831 0.22583,5.64566 0.50932,5.36938 0.99943,-0.99582 4.73982,-21.3914 4.1893,-22.82507 -0.41443,-1.06309 2.69592,-3.06746 11.23655,-7.26888 l 11.80041,-5.81036 2.3209,2.70025 c 2.6206,3.04668 4.11001,11.08484 3.01653,16.26995 -0.4901,2.29555 -0.37719,3.03203 0.35797,2.33411 1.33853,-1.29336 3.45582,-16.66347 3.04103,-22.07406 l -0.32073,-4.10304 9.67183,-5.94693 c 5.3205,-3.27048 10.16013,-5.9724 10.75775,-5.99655 2.44534,-0.10811 5.98789,8.67841 7.14552,17.75972 l 1.1688,9.16239 0.3015,-7.12618 c 0.45287,-10.72171 0,-20.24315 -1.11234,-21.32906 -0.52734,-0.53214 -0.94296,-1.678 -0.90452,-2.54505 0,-1.90155 12.93149,-11.2482 15.48807,-11.2482 1.84761,0 3.75745,3.44501 5.66728,10.18031 0.79162,2.76019 0.90453,1.26886 0.56578,-6.6171 l -0.43364,-10.18031 6.74767,-6.07102 c 6.39884,-5.75714 6.81927,-5.97216 8.16357,-4.13415 0.77239,1.06549 1.41397,3.22554 1.41397,4.79831 0,1.57241 0.43364,2.86181 0.9802,2.86181 0.585,0 0.73515,-2.57159 0.37719,-6.4249 l -0.60302,-6.42466 5.47509,-7.26288 c 3.01088,-3.99434 5.74092,-7.28271 6.07078,-7.31875 1.11234,-0.10811 2.96752,5.10151 2.96752,8.33679 0,2.33027 0.30151,2.90265 1.11234,2.09182 0.77239,-0.7808 0.83005,-3.29161 0.18859,-8.33666 -0.88651,-6.90072 -0.81083,-7.44163 1.91741,-12.067447 1.56484,-2.66325 3.02602,-5.30019 3.23335,-5.85984 0.20661,-0.55978 1.33853,-0.16938 2.52066,0.8817 2.04942,1.81746 3.30135,4.77693 4.73033,11.198227 0.35797,1.60629 0.88651,2.68319 1.1688,2.39622 0.73515,-0.73395 -1.48941,-16.966537 -2.76956,-20.211787 -0.86729,-2.1902 -0.41442,-4.60744 2.51514,-13.23444 3.95169,-11.67188 6.08771,-21.25194 7.76571,-34.84903 1.2631,-10.18752 0,-13.88635 -4.43999,-13.88635 z m -228.78461,8.89523 v 0.006 c -0.30151,0.01 -0.585,0.0601 -0.84807,0.10811 -2.83563,0.71113 -4.37597,5.52782 -3.57655,11.17361 5.34872,17.98639 6.56293,32.74279 15.19593,29.13813 5.16013,-2.45988 8.72346,-6.06778 9.36071,-9.47266 0.79162,-4.20239 -1.16879,-8.46015 -8.93091,-19.33646 -3.37101,-4.72756 -6.12735,-8.9064 -6.12735,-9.29272 0,-1.15558 -2.91479,-2.38853 -5.06031,-2.32162 z m -22.64489,0.006 c -2.14551,-0.0721 -5.05273,1.16519 -5.05273,2.32162 0,0.38679 -2.76199,4.56515 -6.13301,9.2926 -7.75634,10.87642 -9.72084,15.13406 -8.93283,19.33645 0.64146,3.40501 4.20251,7.01303 9.36083,9.47279 8.63481,3.60453 9.84709,-11.15187 15.19581,-29.13814 0.81083,-5.6459 -0.73515,-10.4626 -3.57462,-11.17349 -0.26427,-0.0721 -0.54656,-0.10811 -0.84807,-0.10811 z"
       id="path6685"
       inkscape:connector-curvature="0" />
  </g>
</svg>
