<?xml version="1.0" encoding="UTF-8" standalone="no"?>
<!-- Created with Inkscape (http://www.inkscape.org/) -->

<svg
   xmlns:dc="http://purl.org/dc/elements/1.1/"
   xmlns:cc="http://creativecommons.org/ns#"
   xmlns:rdf="http://www.w3.org/1999/02/22-rdf-syntax-ns#"
   xmlns:svg="http://www.w3.org/2000/svg"
   xmlns="http://www.w3.org/2000/svg"
   xmlns:sodipodi="http://sodipodi.sourceforge.net/DTD/sodipodi-0.dtd"
   xmlns:inkscape="http://www.inkscape.org/namespaces/inkscape"
   width="500mm"
   height="500mm"
   viewBox="0 0 500 500"
   version="1.1"
   id="svg7168"
   inkscape:version="0.92.1 r15371"
   sodipodi:docname="floral_pumpkin.svg">
  <defs
     id="defs7162" />
  <sodipodi:namedview
     id="base"
     pagecolor="#a1a1a1"
     bordercolor="#666666"
     borderopacity="1.0"
     inkscape:pageopacity="0"
     inkscape:pageshadow="2"
     inkscape:zoom="0.1767767"
     inkscape:cx="477.80563"
     inkscape:cy="842.85507"
     inkscape:document-units="mm"
     inkscape:current-layer="layer1"
     showgrid="false"
     inkscape:window-width="1366"
     inkscape:window-height="715"
     inkscape:window-x="-8"
     inkscape:window-y="-8"
     inkscape:window-maximized="1" />
  <metadata
     id="metadata7165">
    <rdf:RDF>
      <cc:Work
         rdf:about="">
        <dc:format>image/svg+xml</dc:format>
        <dc:type
           rdf:resource="http://purl.org/dc/dcmitype/StillImage" />
        <dc:title></dc:title>
      </cc:Work>
    </rdf:RDF>
  </metadata>
  <g
     inkscape:label="Layer 1"
     inkscape:groupmode="layer"
     id="layer1"
     transform="translate(0,203)">
    <path
       style="fill:#1a1a1a;fill-rule:nonzero;stroke:none;stroke-width:1.10017705px;stroke-linecap:butt;stroke-linejoin:miter;stroke-opacity:1"
       d="m 330.6955,-193.30446 c -1.86491,0.0917 -4.00997,1.16217 -6.18659,3.26626 -5.06296,4.89453 -7.56002,14.86119 -6.47847,25.84952 0.95379,9.6868 4.51527,19.47638 10.05858,27.64631 2.74175,4.03964 5.92657,7.84144 6.30022,7.51878 0.16833,-0.14549 -0.18337,-1.2479 -0.78005,-2.4496 -1.561,-3.14439 -3.9252,-12.22997 -4.51888,-17.36856 -0.56602,-4.89832 -0.27054,-11.30146 0.68957,-14.96643 0.34569,-1.32023 1.75188,-5.02181 3.12651,-8.22527 2.94585,-6.86429 4.05686,-11.9081 3.40156,-15.46915 -0.34268,-1.8628 -1.00099,-3.2895 -1.88865,-4.26331 -0.99227,-1.08825 -2.27342,-1.60964 -3.7238,-1.53855 z m -33.02688,2.24958 c -0.37124,0.0541 -0.78546,0.52764 -1.45883,1.31102 -3.78752,4.40724 -6.00653,9.86191 -6.11114,15.02006 -0.0842,4.1848 0.49058,6.65348 2.55902,10.97589 1.32079,2.7581 2.34222,4.13486 5.99087,8.07097 5.10864,5.50913 7.43467,7.44681 13.75863,11.45492 l 4.60905,2.92024 -4.81105,-6.03182 c -8.21412,-10.3035 -9.34767,-13.71318 -9.68464,-29.09873 -0.0962,-4.35695 -0.90477,-7.87679 -2.61069,-11.34346 -0.73012,-1.48528 -1.19187,-2.41508 -1.57299,-2.89195 -0.23747,-0.2994 -0.44522,-0.41834 -0.66823,-0.38675 z m -77.67854,5.55486 v 0 c -19.24213,-0.0499 -27.67628,7.48841 -27.67628,7.48841 0,0 13.41204,-1.84792 29.65751,7.8452 7.01203,4.17349 14.02797,10.68099 18.47951,19.18444 2.23104,4.23634 3.83325,8.98533 4.58561,13.84664 9.99546,-7.15159 22.71673,-11.52678 35.74912,-12.14472 -5.15461,-9.08098 -11.76925,-16.35483 -18.7266,-21.78244 -12.2821,-9.5513 -25.37551,-13.29241 -35.74701,-14.16062 -2.22472,-0.18277 -4.33128,-0.27445 -6.32186,-0.27866 z m 128.77221,8.87224 c -0.51432,0 -1.06201,0.0998 -1.63284,0.24108 -7.40642,1.8662 -13.92637,12.76179 -14.91924,24.92813 -0.44308,5.43179 -0.24048,8.82562 0.81041,13.44249 0.69197,3.04791 1.22283,3.92235 1.22042,2.01376 0,-2.88035 1.22103,-9.29263 2.38704,-12.50397 2.265,-6.23471 3.35226,-7.81315 9.24427,-13.42127 5.77988,-5.50077 7.09409,-7.39403 7.32525,-10.53758 0.0872,-1.17509 -0.23146,-2.14936 -0.8552,-2.85997 -0.77975,-0.8886 -2.03654,-1.36471 -3.58011,-1.30438 z m 5.7868,19.69594 c -1.36381,0.0415 -2.77482,0.20801 -4.21378,0.55631 -2.76459,0.67241 -3.31017,1.00547 -7.31863,4.46504 -4.30846,3.71866 -4.33762,3.75852 -5.80183,7.55536 -1.78525,4.62968 -2.17362,10.93591 -0.96702,15.68826 0.97393,3.83634 1.20389,3.9224 -5.04522,-1.87573 -1.69146,-1.84494 -4.41037,-4.15068 -7.42205,-6.09416 l -4.29313,-2.53108 c -7.79809,-4.59728 -14.28437,-7.15743 -22.46122,-8.86392 -5.35213,-1.11687 -10.8227,-1.50109 -16.24066,-1.24414 0.5546,0.97679 1.09057,1.97636 1.6094,2.99557 14.9541,-0.18307 30.66151,5.29995 44.95701,16.39514 6.45712,5.01182 16.20669,16.32359 20.26085,23.51177 16.93293,30.021841 14.8537,67.847791 -5.06056,97.0562115 0.50831,0.28557 1.01452,0.58015 1.51922,0.88315 4.64182,-7.0462905 7.91533,-13.2839805 10.60868,-20.1790805 10.65616,-27.27829 8.44016,-56.92829 -6.05734,-81.049711 -1.62322,-2.70147 -3.55155,-5.62177 -4.29343,-6.48088 -5.88689,-6.87928 -7.97063,-18.08296 -4.75304,-25.56434 1.67433,-3.89243 5.79521,-8.04687 9.20338,-9.28052 4.5303,-1.63918 8.87844,-0.71106 11.63762,2.48612 1.22524,1.41957 1.47263,2.11401 1.34968,3.78849 -0.0842,1.12811 -0.49508,2.3485 -0.91561,2.71153 -1.29678,1.1194 -1.96411,3.16099 -1.40109,4.28039 2.0624,4.09909 7.36042,2.04373 9.11741,-3.53692 2.69726,-8.56575 -4.47048,-15.85959 -14.01654,-15.67286 z M 344.07147,-8.4340585 c -1.14527,1.73866 -2.35097,3.51278 -3.67871,5.37438 -0.68416,0.95891 0.22244,0.49749 3.8765,-1.98123 0.83386,-0.56543 1.68635,-1.11492 2.54847,-1.65449 -0.90931,-0.60751 -1.82493,-1.18556 -2.74626,-1.73866 z m 2.74626,1.73866 c 0.52484,0.34929 1.04607,0.71632 1.56641,1.08485 0.70279,-0.40761 1.43715,-0.81251 2.3185,-1.28505 20.29061,-10.8756005 41.55365,-14.8260505 61.82502,-11.4870205 15.10922,2.48895 25.10858,7.27836 32.31329,15.4819605 6.25513,7.12174 8.78736,14.3598195 8.14589,23.2710295 -0.37906,5.27427 -1.71701,9.6185 -4.16418,13.39551 A 82.461908,136.55537 0 0 0 427.8482,12.192021 c 4.75003,0.31202 7.4494,-2.9013595 6.32606,-8.5044995 -0.45931,-2.29295 -1.68544,-4.63009002 -3.51307,-6.85481 -3.04626,-3.70787 -7.76623,-7.1037105 -13.41055,-9.4631005 -7.753,-3.24044 -16.36511,-4.81978 -24.93242,-4.74703 v 0 c -8.56732,0.0721 -17.08985,1.79907 -24.65949,5.17027 -0.7028,0.31202 0.80199,0.45841 3.72169,0.35771 8.48135,-0.29158 18.35597,1.33796 25.30848,4.1813105 5.42608,2.2193 9.14627,4.70284 13.72436,9.17091 1.18526,1.1573 2.25809,2.1613 3.27681,3.07271 A 82.461908,136.55537 0 0 0 395.36958,0.98726148 v 0 c 0.30059,0.35741002 0.59398,0.71963002 0.87894,1.09387002 5.76305,7.55161 6.47877,15.4395695 1.95539,21.5329795 -1.40079,1.88685 -1.94667,2.31099 -3.87229,3.00808 -1.23275,0.44518 -3.46769,0.77884 -4.96587,0.73736 l -2.72251,-0.0752 -0.99467,-3.80556 c -1.77112,-6.77636 -7.15903,-12.41105 -15.0503,-16.0323495 8.00911,-4.2312 16.3624,-6.40933 24.7692,-6.45923002 C 389.5425,-5.9159985 380.77078,-9.6911985 371.08824,-9.9349885 v 0 c -5.81024,-0.1442805 -11.94934,0.97935 -17.97451,3.46378 -1.06922,0.44068 -2.28934,1.03256 -3.55396,1.70199 3.46198,2.55627 6.82326,5.51955998 10.06249,8.86581 0.73286,0.11723 1.41281,0.23747 1.98545,0.36612 3.26358,0.73256 6.27136,1.74347 8.98635,2.98884 A 82.461908,136.55537 0 0 0 353.01905,20.599971 c 9.78774,7.42445 18.6256,17.48544 25.91658,29.55862 16.19828,26.82439 25.27391,63.605459 25.27391,100.587019 0,36.98186 -9.07563,73.76233 -25.27391,100.58642 -3.26599,5.40834 -6.8449,10.40637 -10.67751,14.9535 a 82.461908,136.55537 0 0 0 27.11146,7.81313 82.461908,136.55537 0 0 0 82.46161,-136.55527 82.461908,136.55537 0 0 0 -7.35742,-56.083616 c -1.44076,2.348565 -3.79443,5.388805 -6.49349,8.318124 -6.36846,6.913434 -16.49648,12.737502 -24.87231,14.304522 -5.47568,1.02443 -12.6816,0.33276 -17.65858,-1.69537 -5.7856,-2.35759 -7.8498,-3.856665 -11.99263,-8.7068 -2.88303,-3.374804 -3.74213,-4.699535 -4.55104,-7.011428 -1.25138,-3.573198 -1.23365,-8.158207 0.0361,-11.102556 1.95268,-4.518877 8.32714,-8.540265 11.51107,-7.263028 1.9142,0.768326 3.59544,2.749261 3.76678,4.437114 0.15331,1.52523 -1.58114,3.283724 -5.05394,5.116164 -5.52197,2.913989 -4.9328,10.50587 1.27634,16.474527 7.30451,7.021347 22.1483,7.770437 34.46436,1.738654 4.91447,-2.40628 12.62779,-9.195567 15.84508,-13.947708 0.95981,-1.417616 1.83304,-2.879119 2.63654,-4.37489 0.37214,1.227939 0.73346,2.464896 1.08305,3.710571 0.18336,-0.300597 0.40851,-0.627347 0.55881,-0.899988 2.35638,-3.872293 3.54103,-6.970247 4.65835,-10.971796 4.75906,-16.820515 2.3113,-34.892715 -7.03938,-51.963925 -1.07524,-1.9635 -4.03311,-6.192 -6.57286,-9.3966695 l -4.61807,-5.82557 c -2.38524,-2.39246002 -3.43853,-3.52481 -4.28231,-4.09323 -1.16872,-0.78907 -2.39035,-1.65119 -3.69374,-2.60017 -5.77206,-4.34363 -10.31168,-6.9152405 -17.68232,-10.0219105 -9.25479,-3.89995 -16.12494,-5.46035 -27.96426,-6.34741 -5.54361,-0.41572 -9.65668,-0.89157 -9.13875,-1.0569 2.70026,-0.86361 10.35227,-4.72448 13.78208,-6.95371 3.84794,-2.50067 9.91309,-7.94719 17.11089,-15.36593 3.88462,-4.00455 10.28613,-8.65539 14.38387,-10.44966 15.49188,-6.78297 33.03172,-3.31348 43.2875,8.56973 4.69352,5.4378 6.82926,11.97759 6.07236,18.60816 -0.62404,5.46666 -1.93314,8.29198 -5.34853,11.54324 -2.47,2.35157 -3.15176,2.76158 -5.7414,3.44213 -5.93529,1.5601 -10.39345,-1.07283 -10.35076,-6.11294 0.0301,-2.93233 -0.99408,-4.29523 -3.33483,-4.46748 -2.84545,-0.20741 -6.0408,3.48934 -5.41706,6.27016 0.5044,2.25027 2.41019,5.11105 4.52309,6.7901905 5.92116,4.70374 14.05562,4.84593 20.50373,0.36192 8.8081,-6.1288805 11.31387,-20.5782805 5.58028,-32.1738205 -2.2659,-4.5826 -8.49096,-11.15906 -12.95303,-13.68378 -9.92572,-5.61545 -22.21683,-6.47606 -34.02369,-2.38283 -4.181,1.44948 -9.1643,4.06617 -11.36497,5.96535 -0.8026,0.69317 -1.7107,1.17924 -2.01761,1.08275 -0.30691,-0.0962 -0.32495,-0.37845 -0.0451,-0.61893 1.28084,-1.1056 4.13651,-9.18896 5.67738,-16.07684 2.00798,-8.97703 4.37098,-14.60932 8.24688,-19.65274 3.39434,-4.41667 6.64951,-7.30722 10.84073,-9.62452 11.84203,-6.548211 27.60594,-3.780911 34.11387,5.98639 2.89055,4.33822 2.99876,10.93452 0.21944,13.33329 -1.34577,1.16181 -2.84275,1.02053 -4.92919,-0.46202 -2.75678,-1.95899 -5.65213,-0.0541 -5.85534,3.85035 -0.0812,1.58054 0.24349,2.52411 1.4549,4.18612 1.38364,1.90067 1.80809,2.18504 3.70636,2.49044 2.80938,0.4509 4.97699,-0.30781 7.77434,-2.7225 2.83584,-2.44687 4.25916,-5.6335 4.39654,-9.84156 0.32915,-10.07691 -6.95462,-19.10385 -17.88223,-22.160321 -5.94701,-1.6638 -13.80071,-0.94778 -20.70573,1.88865 -3.43462,1.410711 -4.48942,2.111101 -8.98816,5.971371 -5.61545,4.81887 -7.11934,6.7977 -10.03062,13.19802 l -1.6094,3.53893 -0.74999,-4.91206 c -0.41212,-2.70087 -1.19728,-6.12467 -1.74497,-7.60691 -2.68463,-7.26363 -2.89204,-10.872301 -0.8594,-14.944791 2.7189,-5.44712 10.46018,-7.03879 12.99812,-2.67261 1.13024,1.94396 0.58286,4.35896 -1.04458,4.61116 -2.65156,0.41182 -2.79765,2.56319 -0.25851,3.822691 3.20587,1.59076 6.82776,-1.581741 6.86564,-6.014351 0.0661,-7.78456 -10.39916,-11.29974 -16.97562,-5.70082 -2.66931,2.27251 -4.76627,6.55362 -4.7272,9.65217 l 0.0301,1.904291 -3.96036,-4.618081 c -4.7783,-5.55623 -8.12214,-8.10921 -13.90262,-10.61078 -3.48062,-1.50629 -7.13888,-2.2671 -10.78032,-2.2671 -2.18504,0 -4.36377,0.27354 -6.4959,0.82544 -3.65075,0.94388 -4.58711,1.4092 -7.5982,3.76678 -4.08481,3.19836 -6.22717,6.20283 -7.12084,9.98734 -0.97754,4.140431 1.17954,9.089461 4.56817,10.484231 2.04016,0.83897 2.75558,-0.0421 2.43664,-2.9182 -0.91592,-8.340971 2.26591,-13.083791 10.29936,-15.344581 6.45232,-1.81591 14.21615,-0.1503 20.08891,4.31507 6.27136,4.76627 11.88471,13.299621 13.8401,21.042711 3.3267,13.17246 0.55911,27.0354 -7.86874,39.41279 -2.53253,3.72019 -3.53772,4.77048 -9.76189,10.19415 -5.993,5.22318 -7.58226,6.3898 -11.65716,8.57363 -6.39249,3.42561 -12.4877,5.58991 -17.95947,6.37327 -12.85925,1.83965 -25.80837,6.57706 -36.61514,13.3441005 z m 12.80453,10.79114 c -5.52948,-0.87354 -14.9547,-1.34217 -18.61057,-0.83837 -1.6635,0.22845 -3.0733,0.35771 -3.13282,0.29158 -0.0601,-0.0661 0.97153,-1.0572 2.29055,-2.19586 2.1628,-1.86701002 5.95303,-4.30455 9.39035,-6.12407 -0.38957,-0.28557 -0.78335,-0.56272 -1.17563,-0.84017 -3.34926,1.93224 -5.66175,3.84524 -16.21241,12.8349 -0.68476,0.58316 -1.24056,1.04818 -1.88685,1.59617 5.64762,1.6758295 11.15516,4.1882195 16.43846,7.4545095 0.26452,-0.38687 0.56452,-0.75059 0.89578,-1.08335 3.99043,-3.98442 8.23576,-7.4659295 12.66085,-10.4298195 -0.21643,-0.22846 -0.43947,-0.44098 -0.65771,-0.66613 z m -17.07001,-13.41295 c -0.87594,-0.49388 -1.75729,-0.9604105 -2.64285,-1.4049905 -0.37634,1.8537805 -0.88015,3.7274005 -1.52132,5.6100405 -0.57775,1.69808 -0.78756,2.70658 -0.46623,2.24126 0.32134,-0.46503 1.47534,-2.05489 2.5656,-3.53232 0.70911,-0.96131 1.39597,-1.93254 2.0648,-2.91399 z m -2.64285,-1.4049905 c 1.70048,-8.37584 0.70701,-16.34437 -2.94164,-22.94248 -2.17061,-3.93211 -3.90897,-5.94551 -7.47555,-8.662 -4.26878,-3.25126 -9.36992,-5.01186 -14.53027,-5.12909 -2.34556,-0.0541 -4.70314,0.23146 -7.0006,0.87263 -3.16138,0.88105 -3.97811,1.33074 -6.59688,3.63332 -3.21942,2.83042 -4.22462,4.48401 -5.16128,8.48766 -1.07975,4.61416 1.26284,10.63062 5.16786,13.27527 3.73673,2.53103 7.78006,1.64186 8.46181,-1.861 0.48096,-2.4706 -0.89277,-3.85876 -3.65285,-3.69133 -2.87822,0.17435 -4.61744,-1.20028 -5.35905,-4.227 -1.03225,-4.21287 1.48435,-9.34316 5.72006,-11.66136 3.27561,-1.79306 6.25543,-2.38674 10.43223,-2.07983 4.28832,0.31592 6.96664,1.30519 10.54615,3.89964 8.64547,6.26715 12.82858,18.26729 10.84284,29.33558 0.51733,0.24048 1.03285,0.49148 1.54717,0.74999 z m -1.54717,-0.74999 c -7.19179,-3.35917 -14.65832,-5.11767 -22.20541,-5.14412 -10.63453,0.0421 -21.16415,3.47911 -31.009,10.1379405 2.49285,4.7302 5.44985,10.00538 8.63167,15.94187 0.0842,0.16533 0.16233,0.33697 0.23146,0.50891 6.48268,-2.32362 13.19228,-3.55125 19.91934,-3.5735 h 0.0301 c 4.51708,0 8.99477,0.56392 13.39762,1.63345 4.92739,-4.85495 7.18547,-8.25260002 9.40087,-13.78268 0.74248,-1.85288 1.258,-3.7743 1.6073,-5.7218705 z M 282.14578,-146.28286 c -13.26024,0.21613 -25.91751,4.89874 -36.45825,14.08574 -0.0782,0.0706 -0.12625,0.11633 -0.2014,0.18277 0.0331,1.19174 0.0301,2.38181 -0.0541,3.56484 0,0.0454 0,0.0872 0,0.13316 3.79804,-4.30449 8.69387,-7.90961 14.68237,-10.7887 3.48244,-1.67493 11.94425,-4.22549 14.33878,-4.32574 0.22545,0 0.40854,0 0.54378,0 0.13527,0 0.22244,0.0415 0.25851,0.079 0.12024,0.15391 -0.31803,0.56008 -1.45038,1.54931 -6.6949,5.85134 -14.04356,17.85135 -16.42102,26.8127 -2.05127,7.73196 -0.84738,15.846881 3.13283,21.104921 2.5028,3.30627 2.50668,3.23894 -0.32435,6.32847 -2.63954,2.87942 -5.54629,3.81578 -9.49105,3.05798 -5.17568,-0.99468 -9.15679,-4.19964 -11.65295,-9.37983 -1.77894,-3.69074 -2.62482,-7.921041 -2.55688,-12.267371 -2.03114,2.53253 -4.6469,5.36205 -7.61773,8.734751 0.15029,-8.568821 3.22333,-17.896961 8.94126,-26.251661 2.28844,-3.34403 3.6781,-4.84969 7.68179,-8.34996 -0.0451,-1.70742 -0.18637,-3.4189 -0.44882,-5.11625 -6.42587,4.5973 -11.7266,10.3372 -15.25862,16.95614 -4.70464,8.81582 -6.32185,18.74124 -5.31185,27.916971 1.53515,-1.8625 3.00146,-3.56899 4.39624,-5.15284 -0.0752,4.29794 0.57293,8.40831 2.01793,12.10204 3.94952,10.09706 15.6196,17.58554 23.1553,14.85852 1.83301,-0.66312 2.72642,-1.33405 5.05181,-3.79263 6.23709,-6.5951 9.28334,-8.26883 11.38211,-6.26114 3.88886,3.72019 1.85081,11.7786 -3.97537,15.72213 -1.31334,0.88917 -4.02743,2.02813 -6.31524,2.64766 -5.01369,1.3584 -12.49435,0.92434 -16.85479,-0.97754 -10.73014,-4.68 -17.42862,-16.1598 -18.85799,-29.1441 -0.23747,0.28557 -0.46619,0.5543 -0.70697,0.85069 -6.76858,7.47646 -14.62348,18.06649 -20.94411,33.51689 -8.13566,25.39084 -7.22037,50.8538205 -0.21342,71.95845 11.85642,-8.3776495 25.03881,-13.14270952 38.64567,-13.14180952 14.60692,0 28.72025,5.50063002 41.23081,15.06081952 a 7.791464,7.791464 0 0 1 2.27131,-1.87182 c 1.45639,-0.78937 2.93259,-1.51471 4.42238,-2.18745 -4.41487,-8.2366595 -8.50299,-15.3316495 -11.51981,-21.6123295 -4.91774,-12.6271905 -9.94673,-22.2129305 -8.70887,-28.6090305 -0.52274,-4.05536 2.6675,-10.86358 6.44176,-19.67619 4.63494,-9.29657 9.90528,-20.62307 13.39552,-34.38291 2.31883,-10.136131 2.58844,-20.030591 1.31514,-29.255641 -3e-4,-3.9e-4 5.7e-4,0 0,0 -0.97156,-0.8907 -1.66832,-1.84209 -2.06901,-2.86244 -0.38236,-0.97219 -0.43316,-2.57059 -0.12024,-3.73236 0.17435,-0.65287 0.355,-1.14513 0.6186,-1.5901 0.65563,2.65956 1.18528,5.39019 1.57092,8.1849 1.07493,0.98466 2.48988,1.89322 4.2652,2.72233 3.68622,1.72112 7.26453,2.44827 14.26571,2.89466 3.31469,0.21342 7.55822,0.69047 9.42883,1.06351 6.31164,1.2592 13.82447,4.91657 20.47157,9.9684 3.56478,2.70928 11.9304,10.871401 13.10964,12.789511 1.2553,2.04195 1.23335,0.9559 -0.0481,-2.4132 -2.64586,-6.954311 -7.51163,-14.527561 -13.17187,-20.894801 -3.39585,-3.82011 -7.07846,-7.20697 -10.73973,-9.76421 -8.88115,-6.20397 -15.77715,-8.99197 -23.84935,-9.6415 -1.54958,-0.12475 -2.92271,-0.17465 -4.16448,-0.13317 -3.72409,0.11633 -6.26203,1.02083 -8.82703,2.9714 -1.23485,0.93931 -1.88414,1.5323 -2.31009,2.25 -0.61352,-2.48909 -1.33555,-4.91662 -2.16129,-7.2672 -1.14858,-3.24582 -2.48865,-6.31086 -3.96909,-9.21616 -0.0842,0 -0.16533,0 -0.24949,0 z m -36.72699,17.96615 c -2.73754,3.1028 -4.90812,6.56652 -6.49139,10.39369 -1.57724,3.81223 -2.38584,7.84023 -2.44746,11.77295 0.97153,-1.21111 1.82312,-2.3648 2.50971,-3.48092 3.70363,-5.21596 5.97043,-11.98694 6.42914,-18.68572 z m 159.43553,25.61809 c -3.89815,0 -7.51373,1.19518 -9.92752,3.321901 -2.47181,2.17753 -3.55336,4.53631 -3.58613,7.82605 0,1.33886 0.11724,2.60798 0.29759,2.81449 0.17435,0.21042 1.67974,0.0631 3.34144,-0.32855 12.10715,-2.84065 26.29504,5.63469 33.45857,19.9882 0.91472,1.83064 1.77442,3.23323 1.9124,3.11389 0.49117,-0.42414 0.15931,-8.30009 -0.50711,-11.98601 -1.15129,-6.37777 -3.85486,-11.9821 -7.57024,-16.23826 -4.21016,-4.82428 -9.71951,-7.917131 -15.73325,-8.438361 -0.56573,-0.0511 -1.12784,-0.0752 -1.68455,-0.0721 z m 65.41325,6.072371 c -9.91069,0.0421 -22.00311,8.26732 -29.14621,19.8331 -2.08193,3.37119 -4.71877,9.09276 -5.58238,12.11075 -0.20742,0.72204 -0.28557,1.31963 -0.17135,1.32774 0.11423,0 1.16121,-1.27212 2.32933,-2.84515 1.33045,-1.79246 4.08271,-4.57088 7.37034,-7.44098 7.35081,-6.41715 10.52241,-7.80891 21.31565,-9.35789 4.97278,-0.71302 8.78555,-2.32031 10.87951,-4.58351 2.0636,-2.23043 1.96651,-4.65144 0.35681,-6.42676 -1.42092,-1.56702 -4.01898,-2.63053 -7.3511,-2.6173 z m -148.34139,3.33272 c -0.12024,0.10521 -0.35411,2.48984 -0.51763,5.30494 -0.2014,3.4764 0.0301,6.28308 0.70911,8.75218 0.9565,3.46078 1.18405,3.84043 4.76146,7.94839 2.92601,3.35887 4.89673,5.14923 8.90248,8.08787 7.0454,5.16907 13.20043,12.09483 15.52074,17.4656 0.84888,1.9656 1.59977,4.12088 1.66741,4.78761 0.32434,3.20015 1.08305,1.59256 2.34435,-4.97038 1.58175,-8.23035 1.28987,-15.94006 -0.82724,-21.92615 -0.85911,-2.42913 -1.70228,-3.76078 -4.30184,-6.80072 -3.99254,-4.66616 -6.93027,-6.58518 -16.87673,-11.0256 -6.25934,-2.79435 -7.28407,-3.41057 -9.10659,-5.47928 -1.12934,-1.28205 -2.15348,-2.24787 -2.27552,-2.14446 z m 138.98109,15.38937 c -6.0393,0 -12.51386,2.32031 -17.52752,6.62065 -4.03702,3.46288 -9.14657,10.90086 -10.76318,15.66863 l -0.56091,1.64847 3.57349,-2.57431 c 9.75198,-7.02736 20.23831,-9.84576 28.31866,-7.60902 3.83983,1.06201 8.2069,3.24044 9.49767,4.73591 1.12333,1.30159 2.0645,0.79598 3.2726,-1.75549 1.75699,-3.70937 0.88977,-7.77554 -1.97252,-11.00606 -1.49938,-1.69236 -3.54464,-3.15567 -6.04892,-4.21798 -2.38764,-1.01301 -5.04402,-1.50419 -7.78937,-1.5108 z m -165.80007,10.07151 c -0.12324,0.0421 -0.21943,0.53626 -0.33907,1.59016 -0.43346,3.82359 -0.0872,7.05591 0.99257,9.25057 2.21841,4.51407 5.31095,5.70233 18.1206,6.96183 12.13871,1.19337 16.06571,2.51149 20.26535,6.80312 5.51506,5.63559 8.0004,14.50381 7.87956,28.10824 -0.0361,4.35956 0,4.33551 3.02972,-1.63104 3.68832,-7.28377 5.44531,-18.2697 3.9796,-24.8657 -0.78997,-3.55516 -2.34916,-6.66364 -4.64783,-9.28695 -2.29867,-2.62361 -5.335,-4.76447 -9.08074,-6.38649 -5.37919,-2.32933 -11.06979,-2.5677 -19.8334,-0.83355 -8.07494,1.59857 -11.45786,1.4092 -14.42235,-0.81011 -1.77052,-1.32564 -2.49466,-2.20218 -3.76468,-4.55525 -0.86542,-1.60249 -1.72964,-3.36849 -1.92112,-3.9258 -0.1022,-0.29459 -0.18336,-0.44068 -0.25851,-0.41903 z m 92.54394,7.26934 c -7.59759,0.0451 -12.79521,2.21961 -16.27703,6.7472 -2.50217,3.25427 -4.05506,6.84851 -7.61954,17.6198 -4.31056,13.02578 -7.39529,18.7741 -13.61915,25.39475 l -2.39787,2.5502705 3.27681,-1.9124005 c 4.64754,-2.71439 12.77598,-10.27982 15.85139,-14.75361 1.28205,-1.8646 4.46597,-7.1494 7.07606,-11.74313 7.63517,-13.43789 11.83691,-17.81639 21.90271,-22.82644 0.21042,-0.10822 0.29158,-0.19539 0.23146,-0.28557 -0.19238,-0.26152 -1.7104,-0.45781 -5.01967,-0.67905 -1.18526,-0.0782 -2.32031,-0.11723 -3.40577,-0.10822 z m 63.26007,8.75399 c -0.47704,0 -1.01181,0 -1.59436,0.0421 -8.24057,0.37424 -12.6852,3.70426 -18.85135,14.13228 -5.50995,9.31881 -9.45198,13.34531 -15.98035,16.31791 -0.84317,0.38266 -1.4095,0.84077 -1.2592,1.01452 0.1503,0.17434 2.84275,0.41723 5.98429,0.53927 9.70448,0.37845 15.32715,-1.16692 20.45413,-5.61666 3.84314,-3.33603 5.90403,-7.05261 8.43626,-15.21803 2.05458,-6.62486 3.58522,-9.93504 4.79813,-10.37211 0.48697,-0.17434 0.65019,-0.32855 0.54168,-0.46201 -0.18036,-0.21643 -1.09748,-0.35351 -2.52923,-0.36583 z m -284.47732,35.16055 A 82.461908,136.55537 0 0 0 122.18602,4.9121615 c 4.40311,2.95066 8.63074,6.4168395 12.60491,10.3832195 a 7.430216,7.430216 0 0 1 0.86151,1.04398 C 145.98967,9.9038715 157.18962,6.3390915 168.63429,6.3390915 a 7.8178925,7.8178925 0 0 1 0.0301,0 c 9.68674,0.0421 19.33651,2.55869 28.32527,7.2672395 -2.27432,-7.3390795 -3.85306,-15.1272495 -4.62649,-23.2199295 a 82.461908,136.55537 0 0 0 -25.92504,-7.0351705 z m 279.47058,11.8441205 2.42401,1.85048 c 4.47349,3.41237998 10.50076,9.60859 13.95402,14.3405895 8.49818,11.64573 13.01917,24.98443 13.28159,39.19155 0.18637,10.100971 -1.88625,19.183814 -6.17337,27.16527 a 82.461908,136.55537 0 0 0 -5.76064,-16.756488 c -1.13055,1.559498 -2.37111,3.19655 -3.83352,5.017267 -5.54211,6.901711 -7.05982,9.338351 -7.63907,12.278492 l -0.45541,2.322714 -1.35389,-1.654487 c -0.74397,-0.910809 -2.00648,-2.7186 -2.80607,-4.016278 -0.79989,-1.297678 -1.90609,-4.080907 -2.45828,-6.185989 -1.74347,-6.647405 -0.50591,-12.350931 5.14622,-23.727031 0.9586,-1.92954 1.80388,-3.74274 2.56139,-5.47959 4.04604,6.51454 7.67845,13.70002 10.83863,21.442798 4.60004,-6.346508 6.67205,-10.885528 7.56152,-16.236158 1.43535,-8.63916 -1.80719,-17.88793 -9.4162,-26.93921 -0.50681,-0.6033 -1.03346,-1.2084 -1.57904,-1.8096 l -3.77761,-4.15966 0.58647,3.65706 c 1.18555,7.37095 0,14.35352 -4.21377,24.04267 a 82.461908,136.55537 0 0 0 -1.88655,-2.74175 c -1.50479,2.22171 -3.38021,4.2796 -5.67948,6.2422 -7.52966,6.42677 -18.20086,8.29047 -26.51598,4.6325 -11.31387,-4.97668 -15.56852,-18.92379 -8.28987,-27.17969 3.07331,-3.48663 9.06541,-5.10925 12.51236,-3.38833 3.27711,1.63525 5.15374,5.51355 3.88732,8.03165 -0.97724,1.94276 -2.24486,2.05368 -5.22588,0.45571 -2.89896,-1.55409 -4.76627,-1.33225 -6.4445,0.77163 -1.6593,2.07983 -2.20368,4.46688 -1.67583,7.33577 0.40881,2.22172 0.86392,3.0706 2.96539,5.5331 2.04316,2.39606 3.02311,3.16017 5.55654,4.34062 3.18122,1.48285 8.65389,2.11921 11.7798,1.37102 3.25817,-0.77884 7.18487,-2.93112 10.16379,-5.56976 1.9647,-1.74076 3.57981,-3.59394 4.8841,-5.60614 0.704,0.98957 1.39868,1.99897 2.08224,3.02762 2.77992,-4.10526 4.2778,-8.77564 4.70795,-14.48698 0.33397,-4.43592 0.17134,-6.59601 -0.77343,-10.18123 -1.41852,-5.3815895 -3.05948,-8.8156095 -6.44661,-13.4944095 z M 87.216948,0.94969148 v 0 A 82.461908,136.55537 0 0 0 15.892428,69.309387 c 0.99708,3.114787 1.34126,7.433466 1.04427,13.124672 -0.18336,3.480915 -0.21943,7.438878 -0.0872,8.796976 0.36733,3.770691 2.30408,9.880925 4.5297,14.280765 2.33444,4.61658 7.69739,12.32359 10.24946,14.73408 0.97574,0.92133 1.68665,1.83334 1.57934,2.02873 -0.23748,0.43195 -4.54323,-2.03414 -8.51322,-4.87569 -6.65582,-4.76567 -12.41285,-11.04965 -16.6082899,-18.049959 a 82.461908,136.55537 0 0 0 -2.30768,17.345059 c 3.14244,0.18337 6.3846799,0.58706 9.9380399,1.23155 l 4.90364,0.88947 c 3.49775,0.78185 6.847,2.00408 9.07202,3.15025 7.86934,3.26329 7.62375,3.26238 5.3828,0 -2.77602,-4.04183 -4.59463,-10.09105 -4.52099,-15.0524 0.0601,-4.06888 0.0751,-4.11848 2.82983,-9.097876 2.56439,-4.632502 2.96148,-5.132396 5.32267,-6.719548 1.22974,-0.824839 2.49526,-1.470221 3.76017,-1.980936 8.89196,-3.477308 18.13923,0.886461 18.57209,9.856581 0.28257,5.843309 -3.9766,9.604679 -7.32946,6.472159 -0.91592,-0.8555 -0.99738,-3.00267 -0.16833,-4.50174 0.26753,-0.48607 0.23146,-1.772927 -0.0812,-2.860187 -0.46382,-1.613906 -0.93576,-2.179329 -2.57642,-3.088034 -3.69494,-2.044963 -8.09598,-1.411905 -11.7798,1.693564 -2.77091,2.336842 -5.19883,7.659817 -5.42337,11.891327 -0.43076,8.13235 5.39962,17.9231 13.30322,22.34068 0.99348,0.5501 3.81248,2.62361 6.27016,4.59673 11.35806,9.11652 20.134,20.76525 25.88833,33.93772 -0.51252,-6.21334 -0.79508,-12.47568 -0.79508,-18.74824 0,-36.98578 9.07683,-73.770155 25.278412,-100.599649 7.28949,-12.07108 16.12434,-22.13267 25.90998,-29.55862 A 82.461908,136.55537 0 0 0 87.213238,0.94758148 Z M 413.69879,4.5791015 c 4.84322,1.82612 9.57672,4.37368 14.1434,7.6111195 -1.39387,-0.0932 -2.95548,-0.47465 -4.65866,-1.2057 -3.12591,-1.3412595 -5.87908,-3.1800195 -9.48474,-6.4054195 z M 241.2459,11.956051 a 82.461908,136.55537 0 0 0 -77.61178,90.829039 c 4.19905,-2.54245 8.72817,-4.185517 12.8367,-4.516775 11.3103,-0.912313 21.26755,5.036205 24.44456,14.605115 1.32687,3.99554 1.09448,7.47766 -0.7199,10.75477 -1.78948,3.23322 -3.5597,4.69683 -6.35191,5.24542 -1.88658,0.37003 -2.38467,0.24949 -4.34033,-1.0554 -1.71133,-1.14077 -2.34378,-1.91149 -2.81271,-3.4229 -1.16031,-3.73402 0.89758,-6.52295 4.16209,-5.6383 2.46998,0.66883 3.92427,0.28256 4.78521,-1.27212 1.77833,-3.21219 -0.6048,-9.36511 -4.81737,-12.43511 -7.52157,-5.481693 -18.97011,-4.79994 -27.80316,0.81401 a 82.461908,136.55537 0 0 0 -1.40529,7.41363 c 3.10757,-3.55516 6.63718,-6.2428 10.29485,-7.60871 3.1217,-1.16512 5.92717,-1.06682 7.8023,-0.0872 2.12462,1.1089 3.05319,3.34745 1.88865,6.15412 -1.18165,2.84786 -4.20202,5.67498 -8.62113,8.06412 -7.07215,3.8251 -10.28553,6.143 -13.36094,10.52692 a 82.461908,136.55537 0 0 0 -0.22545,3.05978 c 2.91853,-3.12591 6.47159,-5.5334 10.21102,-6.91283 2.57819,-0.94478 5.24148,-1.40289 7.83236,-1.27815 2.71706,0.12926 5.14171,0.79539 7.13407,1.86491 3.80315,2.04045 6.02273,5.55774 5.65754,9.64617 -0.2495,2.82079 -0.95803,3.61076 -2.46249,2.77841 -1.72847,-0.9586 -6.58068,-1.49096 -10.55039,-1.1585 -6.22624,0.51944 -12.733,4.13862 -18.42598,10.07151 a 82.461908,136.55537 0 0 0 0,0.11122 82.461908,136.55537 0 0 0 0.11423,3.74514 c 0.22545,-0.19238 0.4506,-0.39498 0.67274,-0.57805 9.66149,-7.92494 21.49176,-11.36919 32.74735,-9.53404 5.05965,0.82514 13.17367,4.84082 16.88514,8.3566 9.39126,8.89587 12.04042,23.32063 5.89622,32.1179 -4.49844,6.43759 -12.1799,9.11892 -19.3627,6.75382 -2.56346,-0.84408 -5.34248,-2.86799 -6.59447,-4.80474 -1.54717,-2.39336 0.17134,-6.96785 2.91369,-7.75721 2.25598,-0.64809 3.68472,0.27955 4.67579,3.03633 1.70378,4.74402 6.7956,5.67227 11.82459,2.15528 2.19436,-1.53485 2.69275,-2.15438 4.19664,-5.21506 2.07983,-4.23211 2.33053,-7.33758 1.02503,-12.6825 -1.58354,-6.48298 -5.84902,-11.87869 -12.1342,-15.35721 -13.39551,-7.41392 -30.52234,-4.91747 -42.66827,6.0895 a 82.461908,136.55537 0 0 0 0.21343,7.03758 c 1.99236,-3.19204 4.6809,-5.22738 8.57991,-6.87014 0.53209,-0.24048 1.03496,-0.42445 1.48255,-0.59068 v 0 c 1.34761,-0.48576 2.25902,-0.67243 2.5013,-0.53115 0.14729,0.0812 0.0481,0.28556 -0.34812,0.62133 -0.98686,0.82965 -1.27962,4.46447 -0.91532,11.39023 0.44912,8.53817 -0.1984,12.7378 -2.64944,17.19716 -1.3969,2.54065 -3.06792,4.61086 -5.23673,6.388 a 82.461908,136.55537 0 0 0 1.47864,6.70692 c 0.0721,0 0.13827,0 0.21042,0 7.99047,0.36583 13.1385,1.20659 20.05644,3.28522 18.31418,5.50333 36.51684,2.66088 51.36454,-8.02323 4.97401,-3.57951 8.37103,-6.97897 12.15164,-12.15585 8.16034,-11.175 10.00778,-26.95395 4.50384,-38.48034 -6.82085,-14.28378 -20.47036,-20.94501 -31.12954,-15.19429 -1.91029,1.03105 -3.11719,2.08825 -4.14283,3.6249 -1.66741,2.50007 -1.87272,4.3764 -0.97994,8.90278 0.31562,1.60189 0.34418,3.33453 0.0631,3.84193 -1.05028,1.89798 -5.084,1.01362 -7.29309,-1.59857 -1.47412,-1.74406 -2.6185,-5.97827 -2.27311,-8.41702 0.53209,-3.75596 3.76257,-8.47353 7.66252,-11.19063 7.75363,-5.40203 17.91292,-5.61606 27.0315,-0.56963 4.15395,2.29927 6.95672,4.76507 10.44966,9.19677 l 2.34195,2.97381 c 1.96681,2.6221 2.30618,4.16988 3.51341,8.10319 2.02389,7.96583 2.61219,13.50974 1.93825,18.24955 -0.42715,3.00297 -0.22845,3.92461 0.54135,2.54426 0.93395,-1.67192 4.78433,-4.21046 7.72925,-5.09692 3.63512,-1.09328 6.46044,-0.84949 10.05651,0.86361 3.95613,1.88535 6.43428,5.07138 6.89747,8.86611 0.54438,4.46297 -0.74698,7.57956 -4.06978,9.81781 -2.88123,1.94095 -7.55611,0.74848 -8.81862,-2.24756 -1.07524,-2.55207 1.07133,-4.85255 2.90076,-3.10938 0.51345,0.49057 1.30219,0.6027 2.27976,0.32013 1.20386,-0.34508 1.63251,-0.78906 2.21537,-2.28213 1.37253,-3.51458 -0.22244,-6.50763 -4.55525,-8.55861 -3.82387,-1.80839 -6.80609,-1.49095 -11.04274,1.17354 -3.10847,1.95538 -3.13492,1.99056 -5.34161,6.42466 -1.22072,2.45107 -3.59875,6.9489 -5.2881,9.99215 l -3.0709,5.5349 1.98334,-1.02053 c 5.96895,-3.0682 12.95847,-4.5306 19.51116,-4.08512 13.91674,0.94658 25.5216,9.4643 28.72479,21.08209 2.19526,7.9613 0.54976,15.48615 -4.564,20.86263 -3.73702,3.92069 -8.4065,5.3356 -13.16131,3.96247 -4.97041,-1.43565 -6.82269,-7.51853 -3.40366,-11.1783 1.14978,-1.22944 4.10011,-2.12492 5.12936,-1.55589 0.46742,0.25851 1.29076,1.6118 1.83066,3.00447 1.20176,3.10516 2.15044,3.68532 4.69079,2.85988 4.6166,-1.49908 7.48397,-7.20622 6.93391,-13.79501 -0.65774,-7.88525 -5.61065,-15.05841 -13.35226,-19.33711 -6.80702,-3.76768 -14.03248,-4.82728 -22.06173,-3.24885 -7.22785,1.42033 -12.59772,4.1263 -20.54882,10.35046 -3.27651,2.565 -8.24989,5.70113 -11.50656,7.25221 -1.2625,0.6039 -1.19604,0.62915 2.03685,0.74969 9.47816,0.36191 17.36433,4.55644 22.66984,12.06115 7.42294,10.49956 4.91897,24.22122 -5.35484,29.3461 -6.17006,3.07811 -13.86324,-0.26753 -13.5416,-5.88539 0.0631,-1.11462 0.48576,-2.37562 1.00342,-2.98253 1.25707,-1.48585 4.05743,-2.17572 5.52227,-1.36441 0.97691,0.54078 1.21017,1.14017 1.20777,3.07932 0,1.32473 0.3397,2.69095 0.7563,3.04054 1.13957,0.95289 3.95225,0.79388 6.17337,-0.3538 1.69326,-0.87234 2.25661,-1.52313 3.91077,-4.49934 2.36089,-4.25014 2.79585,-7.99589 1.51711,-13.07748 -1.55108,-6.16405 -5.35664,-10.93843 -11.3755,-14.26995 -7.06373,-3.90895 -14.05622,-4.62708 -23.47994,-2.41078 -7.83597,1.84235 -16.84033,2.6215 -22.58143,1.95508 l -4.50598,-0.52455 6.34741,3.87019 c 3.49173,2.12823 7.73015,5.07078 9.41801,6.5407 14.67906,12.78319 23.22807,28.89339 24.58223,46.32201 0.58346,7.50952 1.65028,12.45765 3.61621,16.78174 1.40977,3.09976 3.1184,5.8896 5.05421,8.38035 A 82.461908,136.55537 0 0 0 323.7093,148.49089 82.461908,136.55537 0 0 0 288.24819,36.479071 c -2.90678,1.12694 -5.62778,2.61219 -8.12244,4.4329 l -1.83304,-2.12251 c 2.24215,-1.74617 4.72629,-3.25878 7.84528,-4.80956 a 82.461908,136.55537 0 0 0 -44.89027,-22.04399 z m -72.61161,2.20037 A 82.461908,136.55537 0 0 0 88.480328,119.31343 c 1.64126,-2.57582 2.52862,-3.4698 5.34612,-5.42368 4.82609,-3.34565 10.649852,-4.95655 16.708992,-4.62379 6.28879,0.34509 10.30988,1.58595 16.71531,5.14593 l 5.31188,2.96118 -0.68118,-1.77683 c -1.10861,-2.89415 -0.62254,-7.63697 1.09597,-10.69224 4.23331,-7.528759 15.26793,-7.849497 17.89936,-0.52244 1.49788,4.17199 -0.80199,8.39959 -4.35986,8.01693 -2.8172,-0.30361 -3.4244,-2.37322 -1.07881,-3.67661 1.43953,-0.79959 1.11638,-3.25516 -0.61656,-4.68811 -3.89183,-3.2185 -10.60416,0.95319 -11.27059,7.00481 -0.49839,4.52399 0.94391,7.83748 5.97587,13.72437 1.02654,1.20059 2.94856,4.14254 4.26972,6.53438 l 2.40234,4.34904 0.28557,-3.87619 c 0.42203,-5.72488 1.01361,-8.38877 3.16498,-12.6804 3.46709,-27.043225 11.63612,-52.60751 23.85148,-72.834989 5.91726,-9.79827 12.8824,-18.36408 20.5876,-25.34275 a 82.461908,136.55537 0 0 0 -25.45456,-6.75562 z m 145.32216,0.0421 a 82.461908,136.55537 0 0 0 -25.49305,6.77696 c 2.82021,2.55895 5.53941,5.33376 8.14589,8.30099 9.28123,-4.32199 16.45679,-8.81321 23.48836,-14.67425 a 82.461908,136.55537 0 0 0 -6.1412,-0.40343 z m 8.79938,0.93693 c -9.33054,7.67214 -13.95372,10.74244 -20.76375,14.2333 l -1.36682,0.70069 2.98707,0.3006 c 11.96073,1.19487 21.98414,8.88866 24.79262,19.0296 2.38313,8.6055 -2.7168,16.888454 -8.86611,18.017196 9.8704,24.080537 15.19398,52.534753 15.19428,81.104103 -3e-4,37.49138 -9.1601,74.79129 -25.74464,102.25625 -6.68077,11.06408 -14.69409,20.56625 -23.60439,27.97267 a 82.461908,136.55537 0 0 0 28.57236,8.561 82.461908,136.55537 0 0 0 82.46161,-136.55529 82.461908,136.55537 0 0 0 -73.66223,-135.618329 z m -6.23379,12.85597 v 0 0 c 15.23697,0.38683 30.56232,7.41152 38.57083,16.34827 3.88281,4.33311 6.04591,9.11558 5.64491,13.81001 -0.32495,3.799845 -2.03414,5.641934 -5.2367,5.599821 -1.40259,0 -3.22571,-0.525114 -4.47379,-1.257068 -2.75858,-1.617513 -7.46834,-7.082073 -10.20227,-11.848033 -2.60798,-4.53451 -7.76983,-10.04539 -11.86577,-12.66957 -5.91064,-3.78692 -13.5921,-6.92366 -20.65613,-8.43596 -2.97682,-0.63757 -3.04205,-0.67995 -1.59227,-1.01211 v 0 c 0.83145,-0.19238 3.87981,-0.42625 6.77306,-0.52665 1.01271,-0.0421 2.02662,-0.0421 3.04264,0 z m -15.57213,6.56444 c 2.84725,3.66969 5.54151,7.57144 8.03857,11.70642 1.69236,2.8031 3.30296,5.71165 4.83901,8.70953 0.55671,-0.0451 1.17654,-0.0631 1.95328,-0.0421 4.23391,0.17134 5.69662,-0.92374 5.84872,-4.37489 0.24048,-5.4384 -4.0289,-11.15456 -10.45357,-13.99971 -2.48924,-1.10229 -6.40422,-1.80298 -10.22601,-2.00889 z M 32.283088,72.198426 v 0 c 0.64418,0 1.23816,0.147292 1.75759,0.427449 0.83085,0.451196 1.46752,1.254692 1.79216,2.387342 0.87083,3.029118 0.29158,5.261653 -3.22721,12.421877 -3.58853,7.300603 -4.06227,9.15649 -4.0292,15.789466 0.0301,3.41719 1.08786,9.85718 2.08434,12.55955 0.66281,1.79036 -0.13828,1.1531 -1.84146,-1.46721 -2.58183,-3.96849 -3.94744,-7.08267 -5.41075,-12.332 -3.27741,-11.758761 -0.92945,-24.237751 5.37408,-28.55102 0.48696,-0.328553 0.96792,-0.612016 1.45038,-0.790871 v -0.04208 c 0.71391,-0.285567 1.40799,-0.429553 2.05217,-0.427749 z m 392.286192,0.558509 3.68743,4.046338 c 2.89836,3.182122 4.25736,4.339722 6.36695,5.42127 3.8777,1.98815 10.35286,3.204065 15.37644,2.892646 4.60726,-0.285567 12.17208,-2.042557 14.50442,-3.361277 0.77133,-0.41783 1.2084,-0.575944 1.34066,-0.459914 0.33727,0.300598 -1.32984,2.283637 -4.579,5.314257 -5.44561,5.078589 -9.44716,7.408518 -15.27995,8.895873 -4.49303,1.146477 -11.21288,0.89127 -14.78367,-0.560915 -4.87328,-1.981236 -9.08374,-5.773569 -10.51399,-9.469411 -1.69987,-4.393528 -0.94357,-8.491268 2.05008,-11.113377 z m 45.09228,12.907642 c 0.11122,0 -0.51011,2.157686 -1.38154,4.77709 -1.98455,5.963847 -4.79002,11.264273 -8.57394,16.199783 -3.1235,4.07399 -2.22141,3.29184 -25.1729,21.8465 -6.40693,5.1793 -7.43407,6.16915 -9.77242,9.4093 -2.95096,4.08841 -4.86817,8.33886 -6.20582,13.76104 -0.50831,2.06088 -1.09688,3.4782 -1.32804,3.20376 -0.23146,-0.27054 -1.19007,-2.40779 -2.13785,-4.74433 -2.56319,-6.31494 -3.69975,-11.55555 -3.47701,-16.03025 0.26753,-5.35303 1.75309,-8.75519 5.34402,-12.23701 3.53472,-3.4265 7.19359,-5.47417 19.06838,-10.66879 18.03493,-7.89008 26.02119,-13.627273 31.72683,-22.787972 0.93996,-1.509298 1.79967,-2.729121 1.91029,-2.729121 z M 111.91067,114.63252 c -4.97876,-0.1022 -9.86109,1.27153 -13.591202,3.9775 -6.75502,4.90065 -8.10049,10.45087 -4.35535,17.95949 1.29407,2.58904 0.92794,3.66307 -1.27663,3.57981 -2.20819,-0.0812 -4.43829,-1.53516 -5.97768,-3.59935 a 82.461908,136.55537 0 0 0 -0.53717,14.16955 82.461908,136.55537 0 0 0 6.80282,54.18142 c 0,-1.7639 -0.0301,-3.61707 -0.0992,-5.67707 -0.38146,-11.33972 -0.16833,-15.2508 1.05299,-19.16938 1.70081,-5.45313 5.8253,-9.28905 12.938032,-11.96046 1.01659,-0.37815 2.09423,-0.73526 3.2338,-1.07193 3.18152,-0.93726 4.67368,-1.27904 4.94425,-1.09988 0.0902,0.0661 0.0421,0.17434 -0.11723,0.34899 -7.71095,8.18285 -10.13917,13.7439 -12.65424,28.9935 -0.85974,5.21265 -2.01851,11.27359 -2.576422,13.46644 -0.55163,2.16941 -1.73986,5.1318 -3.17133,8.1525 a 82.461908,136.55537 0 0 0 1.53398,4.14523 c 5.729082,-5.21897 12.137782,-9.8148 18.868452,-13.45142 4.86306,-2.62782 9.83344,-6.76613 14.6463,-12.19191 3.06759,-3.45897 4.15608,-5.10264 7.97186,-12.07679 3.96365,-7.24169 4.5426,-8.57574 5.63196,-12.94191 3.6255,-14.52876 1.42516,-28.49301 -6.25269,-39.70107 -4.51377,-6.58849 -12.73212,-12.65243 -20.26536,-14.95532 -2.20461,-0.67423 -4.48611,-1.02894 -6.74934,-1.07643 z M 5.5371581,120.06041 a 82.461908,136.55537 0 0 0 -0.48968,6.68468 c 6.9146399,-1.47563 13.8364899,-1.03737 23.1745399,1.4122 4.31988,1.13236 8.94547,3.03544 13.45323,5.44472 7.51372,4.01598 14.698,9.43845 19.58631,15.04789 2.369,2.7174 2.76519,3.72981 0.88105,2.24788 -1.76992,-1.39178 -12.44232,-6.15654 -16.72403,-7.46534 -7.98416,-2.44115 -16.29717,-3.2732 -22.6545,-2.27101 -1.88414,0.3006 -6.03299,1.31721 -9.21631,2.265 -3.54404,1.05569 -6.2130399,1.70017 -8.5477799,2.03234 A 82.461908,136.55537 0 0 0 65.049978,269.03334 c 2.61189,-3.76858 4.94873,-7.71723 7.1984,-12.09783 4.38722,-8.54387 5.63199,-12.77267 5.82738,-19.80304 0.37094,-13.33689 -8.70319,-26.29864 -20.7914,-29.69599 -4.25616,-1.18525 -7.11183,-1.18676 -11.24474,0 -4.025,1.1573 -6.61675,2.74325 -9.06992,5.55894 -3.1722,3.64023 -3.75837,9.32483 -1.33225,12.92027 1.74286,2.58363 3.85155,3.2717 6.4914,2.1126 2.53193,-1.11191 4.30004,-0.28256 4.70374,2.20037 0.57204,3.5227 -2.91339,5.75613 -7.29519,4.67368 -4.5787,-1.13024 -8.8583,-5.96625 -9.44176,-10.66909 -0.5062,-4.08061 -0.13527,-5.97918 1.90609,-9.74867 1.6605,-3.06639 2.27221,-3.77189 4.9337,-5.69241 6.1887,-4.46597 14.21073,-5.742 21.67245,-3.45296 4.28622,1.31512 6.61464,2.60077 10.01109,5.53941 6.96875,6.01946 10.93543,15.32474 11.21017,26.29894 0.0451,1.79306 0.19539,2.81269 0.33727,2.265 0.14128,-0.54769 0.67454,-2.43965 1.18616,-4.20295 2.86379,-9.8686 4.06648,-19.94101 3.72169,-29.83607 -2.23283,-8.82011 -3.93782,-17.9751 -5.06686,-27.30864 -5.1811,-15.01844 -14.18278,-28.61113 -26.55476,-39.11641 -6.29059,-5.34191 -19.35124,-12.5845 -27.14332,-15.0527 -7.07515,-2.24126 -14.0454,-3.51098 -20.7721599,-3.86538 z M 115.5831,121.34125 v 0 c 4.11244,0 8.26879,1.11222 12.13177,3.22301 4.95835,2.70808 9.43454,7.03217 12.72097,12.61787 1.89947,3.22811 4.93614,10.50256 4.62201,11.07069 -0.0872,0.15631 -1.37947,-0.86001 -2.87073,-2.26079 -11.68692,-10.98923 -27.93179,-14.03308 -38.3087,-7.17917 -1.42363,0.94148 -2.78383,1.60038 -3.021,1.46331 -0.24048,-0.13227 -0.8017,-1.27753 -1.252892,-2.53764 -1.1071,-3.09795 -0.90838,-5.68429 0.657702,-8.58205 1.52884,-2.83042 4.50776,-5.20334 8.16512,-6.55181 0.52124,-0.19539 1.0572,-0.36553 1.60519,-0.51583 1.81952,-0.49719 3.67901,-0.74217 5.54842,-0.74969 z m 114.23771,19.40986 c 0.32464,0 0.65349,-6e-4 0.98626,0.0421 2.43634,0.18637 4.63851,0.83747 6.58398,1.92773 4.2802,2.39997 7.30932,6.92577 8.80148,13.29662 1.80238,7.69709 0.64779,14.8516 -3.65286,22.62204 -3.14665,5.68579 -6.58187,9.37984 -12.55985,13.51845 -2.51028,1.73716 -6.70632,4.03372 -9.32359,5.10535 -5.26258,2.15167 -12.55534,3.90836 -11.36468,2.73753 9.40686,-9.25418 16.08012,-21.26484 17.53594,-31.55698 0.96699,-6.83648 -0.9905,-14.58227 -4.78103,-18.90516 l -1.69747,-1.93163 1.51922,-2.17903 c 1.43926,-2.06631 3.18092,-3.47371 5.15704,-4.15757 0.88797,-0.31202 1.82222,-0.48125 2.79556,-0.5032 z M 33.877758,160.12219 c 0.0781,-0.14128 1.37373,0.41152 2.87701,1.22494 2.42552,1.31031 3.60146,1.53305 10.44094,1.98965 10.86839,0.72534 14.28829,1.5096 19.64854,4.50625 3.49083,1.95298 4.74192,2.91068 6.38829,4.89252 4.05746,4.8844 6.9976,12.01697 8.36081,20.2867 1.08665,6.5942 0.93245,8.36532 -0.47916,5.47507 -0.29458,-0.60208 -1.74436,-2.36418 -3.22089,-3.91497 -4.03492,-4.23631 -12.20605,-8.6064 -20.60474,-11.01899 -4.77498,-1.37132 -7.24258,-2.369 -11.15005,-4.50835 -4.77769,-2.6161 -5.12277,-2.89385 -7.21794,-5.81024 -1.49577,-2.07984 -2.68012,-4.63582 -3.69373,-7.96734 -0.82063,-2.69785 -1.42754,-5.01395 -1.34908,-5.15524 z m 114.820022,9.26982 c -0.17434,0.36162 -0.35924,0.73015 -0.51345,1.07884 -4.18702,9.45138 -7.99468,16.6585 -10.7397,20.336 -2.44689,3.27802 -8.2896,9.54757 -10.52481,11.29193 -0.42865,0.33276 3.59421,-0.64267 8.93916,-2.17031 6.65819,-1.90338 11.80863,-2.98884 16.93651,-3.48722 -0.11723,-0.54529 -0.21643,-1.09869 -0.32885,-1.64638 -0.61893,0.21944 -1.20957,0.44639 -1.87392,0.66192 -2.98974,0.97183 -5.60043,1.67673 -5.80153,1.56461 -0.2014,-0.11122 0.17134,-0.73767 0.82935,-1.38816 2.37291,-2.35037 4.13772,-4.72779 5.54602,-7.66463 -1.06291,-6.10693 -1.90218,-12.30945 -2.46878,-18.5766 z m 117.3558,12.13842 v 0 c 0.74939,0 1.46935,0 2.1123,0 l 4.67579,0.20741 5.25354,2.90947 c 4.95236,2.74085 5.36265,3.06459 7.07605,5.5869 3.00931,4.43051 3.67059,9.51661 1.6954,13.03629 -0.95412,1.70078 -4.05358,4.31057 -5.18713,4.36467 -0.35621,0 -1.28533,-1.47743 -2.06508,-3.31588 -2.60016,-6.13638 -6.88036,-10.26359 -13.29664,-12.82166 -5.3852,-2.14597 -10.73369,-2.90979 -17.45685,-2.49045 -1.94159,0.12024 -2.9717,0 -2.77394,-0.37875 0.49388,-0.89308 5.90072,-3.61108 10.09075,-5.26226 1.39657,-0.55009 2.65637,-0.98446 3.55609,-1.18826 1.54865,-0.3532 4.06915,-0.6033 6.31762,-0.65981 z m -209.345172,7.72084 c 0.72324,-0.0421 1.44738,0 2.17873,0.0421 4.0758,0.22544 7.66673,1.18465 10.73102,2.85146 3.06428,1.66591 5.60102,4.04153 7.57234,7.10341 3.65737,5.68188 5.80994,16.59897 4.86907,24.70908 -0.76652,6.64199 -0.8068,6.68197 -2.27973,2.57852 -4.59312,-12.80634 -9.99094,-20.26776 -17.1151,-23.64738 -5.42487,-2.574 -9.5653,-2.45196 -21.36734,0.62735 -12.45465,3.25126 -15.76903,3.20617 -19.41227,-0.26152 -1.77112,-1.68574 -3.21368,-4.59762 -4.1299,-8.33524 -0.2525,-1.02955 -0.33216,-1.52644 -0.23146,-1.60911 0.0631,-0.0451 0.18938,0.0632 0.38687,0.30361 0.37244,0.456 1.79456,1.8144 3.16078,3.0186 2.00588,1.76841 2.98763,2.34075 5.10774,2.972 3.54915,1.05629 6.78899,0.0632 13.81214,-4.23091 6.66995,-4.0764 11.65475,-5.91996 16.71771,-6.10061 z m 107.701252,8.43385 a 82.461908,136.55537 0 0 0 2.40869,9.24215 c 0.0842,0.0451 0.17735,0.0872 0.25851,0.13527 2.48444,1.45549 4.44223,3.2245 5.66656,5.21716 2.51179,4.08692 1.90942,7.52335 -1.04427,9.32332 a 82.461908,136.55537 0 0 0 15.17898,29.35903 c 2.71677,-1.88775 5.54572,-5.16396 7.37452,-8.57153 3.57139,-6.65462 4.16567,-13.17427 1.9145,-20.96154 -2.48083,-8.58325 -7.36192,-14.49871 -15.69448,-19.01638 -4.87087,-2.64164 -10.11689,-4.20445 -16.06451,-4.72959 z m -11.30455,0.14729 c -2.63203,0.26152 -5.39181,0.67123 -8.3052,1.23125 -16.7607,3.22329 -32.41489,11.41937 -45.994672,23.97231 a 82.461908,136.55537 0 0 0 0.98836,2.6708 c 2.923912,-1.85919 5.963582,-3.33332 9.048582,-4.3839 9.17001,-3.12141 18.70736,-2.61279 26.56106,1.85017 0.40551,0.23146 0.8068,0.46863 1.20329,0.72204 8.01966,5.09181 11.42119,12.24392 9.28485,19.52619 -0.66132,2.25477 -1.02805,2.84244 -2.59356,4.16206 -1.00219,0.84528 -2.98282,1.92984 -4.40284,2.40899 l -2.58063,0.87233 -2.24967,-3.22751 c -5.335,-7.6511 -15.98936,-11.18011 -28.78308,-9.5662 a 82.461908,136.55537 0 0 0 63.35269,49.19813 82.461908,136.55537 0 0 0 28.48636,-8.51321 c -6.74059,-5.60073 -12.96476,-12.40565 -18.49034,-20.17278 -1.7146,0.30751 -3.45022,0.42565 -5.17628,0.32014 -12.33738,-0.7557 -21.15482,-12.37107 -17.18183,-22.63527 1.13566,-2.93683 3.8248,-5.52798 6.63117,-6.76674 -0.97423,-2.38163 -1.90669,-4.80234 -2.79134,-7.26513 -2.87191,-0.66913 -6.07898,-1.85318 -10.4172,-3.79023 -5.8412,-2.60828 -10.19054,-3.65316 -16.04918,-3.85696 -7.50651,-0.26152 -17.33544,1.62533 -25.19245,4.8327 -2.70447,1.10499 -4.16808,1.48765 -3.61648,0.95169 5.93589,-5.78199 13.33449,-10.35257 21.34841,-13.38229 8.01272,-3.03242 16.63805,-4.52879 25.03313,-4.17078 1.05633,0.0451 2.09035,0.14128 3.11148,0.26152 -0.43133,-1.73593 -0.83265,-3.48993 -1.22253,-5.24961 z m 27.70844,2.42852 3.5239,2.36539 c 4.79663,3.2179 7.52365,5.87187 10.71602,10.43042 2.12669,3.03664 3.02698,5.00705 4.24831,9.28485 2.42374,8.48946 1.63828,15.53847 -2.57221,23.04799 -1.94577,3.47039 -4.63037,6.41143 -7.72475,8.66832 a 82.461908,136.55537 0 0 0 24.13077,22.71041 c -1.01485,-0.65711 -2.25481,-1.51742 -3.19959,-2.25839 -1.19935,-0.94087 -3.19955,-3.171 -4.4458,-4.95504 -3.93545,-5.63409 -4.74796,-11.41187 -3.38024,-24.04086 1.52643,-14.0938 0.46232,-22.37555 -3.85693,-30.04859 l -1.81564,-3.22751 4.983,2.59596 c 0.72023,0.37424 1.42333,0.76081 2.10812,1.15158 10.26987,5.85984 16.5112,13.41595 18.15276,22.01844 1.26638,6.63749 0.42621,12.65785 -3.33696,23.88816 -2.81236,8.39207 -3.39194,11.20355 -2.91817,14.16263 l 0.34809,2.1658 a 82.461908,136.55537 0 0 0 11.30456,4.81106 c 1.52189,-2.99635 2.77869,-6.02847 3.36936,-8.42303 2.59806,-10.53052 1.7104,-21.46624 -2.64736,-32.64425 -5.16125,-13.2392 -14.01714,-24.19146 -26.01935,-32.17802 -4.87722,-3.24495 -12.67622,-6.97325 -18.0542,-8.62743 z m 36.25866,3.63331 v 0 c 0.74635,0 1.50326,0 2.21537,0.0421 5.96415,0.21643 12.06747,2.14837 17.11059,5.00224 6.48391,3.66849 11.21528,8.86401 11.64423,13.90896 0.46897,5.51443 -4.65144,6.88608 -8.82493,2.36176 -0.78215,-0.84768 -2.96118,-3.84584 -4.84352,-6.65913 -2.89866,-4.3322 -3.92069,-5.47177 -6.66992,-7.43677 -3.57593,-2.55628 -9.18147,-5.07859 -13.21698,-5.95242 -1.36862,-0.29459 -2.51931,-0.63547 -2.54847,-0.7518 -0.0301,-0.0571 0.0421,-0.0782 0.15331,-0.12024 0.588,-0.19539 2.73693,-0.3532 4.97671,-0.37815 z m -130.179642,8.19759 c -0.36612,8.25981 -1.72122,16.22232 -4.47198,26.30766 -0.30992,1.13656 0.37845,0.38657 2.95036,-3.20196 1.98875,-2.77542 4.18642,-5.47388 6.55813,-8.06653 -0.15331,-0.39498 -0.3036,-0.79357 -0.4533,-1.19247 -0.53687,0.79538 -1.05991,1.52704 -1.54718,2.11861 l -2.41289,2.92692 1.36862,-3.2212 c 0.64027,-1.5093 1.16782,-2.95487 1.64367,-4.39413 -1.31752,-3.67119 -2.52322,-7.44038 -3.63543,-11.2769 z m 5.81445,17.03153 c -0.64989,0.69769 -1.30218,1.39207 -1.94035,2.112 -3.826,4.31417 -4.28742,5.0371 -12.50154,19.65725 -4.91626,8.75068 -8.26612,14.49269 -11.14584,18.9307 a 82.461908,136.55537 0 0 0 13.06035,3.66578 c 5.44562,-0.8561 10.95977,-0.961 16.14597,-0.38656 a 82.461908,136.55537 0 0 0 17.985332,-6.82927 c -3.83231,-4.54683 -7.41152,-9.54486 -10.67751,-14.9532 -2.21059,-3.66038 -4.282612,-7.51313 -6.222962,-11.51979 -4.76807,1.31932 -9.92903,3.08563 -12.22439,4.31057 -1.48164,0.79026 -2.75978,1.39747 -2.83854,1.35599 -0.0781,-0.0451 0.54649,-1.32714 1.39057,-2.85177 1.89226,-3.41989 6.27526,-8.90789 9.43724,-11.82008 0.0511,-0.0451 0.10521,-0.0932 0.15631,-0.13527 -0.21041,-0.51071 -0.42023,-1.01962 -0.62524,-1.53394 z m 73.526972,8.0019 c -1.80298,0.19839 -2.87401,1.15128 -3.49384,3.0213 -0.83747,2.52532 -0.52304,4.95354 0.96461,7.46262 1.15219,1.94306 1.87396,2.58304 4.69744,4.16658 2.74598,1.54086 3.92943,1.91601 6.71504,2.14837 0.11723,0 0.2525,-3e-4 0.37364,0 -0.67211,-1.04247 -1.34217,-2.08645 -1.98965,-3.15898 -2.60856,-4.31898 -5.03287,-8.88294 -7.26724,-13.65101 z m 67.83486,34.34833 c -0.0722,-0.0421 -0.12325,0.0421 -0.1473,0.18337 -0.41359,2.73182 -1.71247,6.93988 -3.42497,11.09173 -0.12625,0.3036 -0.26753,0.60871 -0.4019,0.91381 a 82.461908,136.55537 0 0 0 10.65163,1.38095 c -2.32389,-3.26359 -4.21344,-6.93117 -5.52044,-10.93513 -0.52093,-1.59647 -0.93879,-2.53523 -1.15579,-2.63593 z"
       id="path11870-1"
       inkscape:connector-curvature="0" />
  </g>
</svg>
