<?xml version="1.0" encoding="UTF-8" standalone="no"?>
<!-- Created with Inkscape (http://www.inkscape.org/) -->

<svg
   xmlns:dc="http://purl.org/dc/elements/1.1/"
   xmlns:cc="http://creativecommons.org/ns#"
   xmlns:rdf="http://www.w3.org/1999/02/22-rdf-syntax-ns#"
   xmlns:svg="http://www.w3.org/2000/svg"
   xmlns="http://www.w3.org/2000/svg"
   xmlns:sodipodi="http://sodipodi.sourceforge.net/DTD/sodipodi-0.dtd"
   xmlns:inkscape="http://www.inkscape.org/namespaces/inkscape"
   width="500mm"
   height="500mm"
   viewBox="0 0 500 500"
   version="1.1"
   id="svg10539"
   inkscape:version="0.92.1 r15371"
   sodipodi:docname="reindeer_uni_1.svg">
  <defs
     id="defs10533">
    <inkscape:path-effect
       effect="spiro"
       id="path-effect5337"
       is_visible="true" />
    <inkscape:path-effect
       effect="skeletal"
       id="path-effect5339"
       is_visible="true"
       pattern="M 0,5 C 0,2.24 2.24,0 5,0 7.76,0 10,2.24 10,5 10,7.76 7.76,10 5,10 2.24,10 0,7.76 0,5 Z"
       copytype="single_stretched"
       prop_scale="0.29600525"
       scale_y_rel="false"
       spacing="0"
       normal_offset="0"
       tang_offset="0"
       prop_units="false"
       vertical_pattern="false"
       fuse_tolerance="0" />
  </defs>
  <sodipodi:namedview
     id="base"
     pagecolor="#cacaca"
     bordercolor="#666666"
     borderopacity="1.0"
     inkscape:pageopacity="0"
     inkscape:pageshadow="2"
     inkscape:zoom="0.1767767"
     inkscape:cx="366.70719"
     inkscape:cy="816.49726"
     inkscape:document-units="mm"
     inkscape:current-layer="layer1"
     showgrid="false"
     inkscape:window-width="1366"
     inkscape:window-height="715"
     inkscape:window-x="-8"
     inkscape:window-y="-8"
     inkscape:window-maximized="1" />
  <metadata
     id="metadata10536">
    <rdf:RDF>
      <cc:Work
         rdf:about="">
        <dc:format>image/svg+xml</dc:format>
        <dc:type
           rdf:resource="http://purl.org/dc/dcmitype/StillImage" />
        <dc:title></dc:title>
      </cc:Work>
    </rdf:RDF>
  </metadata>
  <g
     inkscape:label="Layer 1"
     inkscape:groupmode="layer"
     id="layer1"
     transform="translate(0,203)">
    <g
       transform="matrix(1.7777221,1.34708,-1.34708,1.7777221,-13.239859,949.99072)"
       id="g5991">
      <ellipse
         ry="24.473959"
         rx="30.799692"
         transform="rotate(-37.153255)"
         cy="-321.60489"
         cx="118.0285"
         id="ellipse5921"
         style="opacity:1;vector-effect:none;fill:#e53325;fill-opacity:1;stroke:none;stroke-width:1;stroke-linecap:round;stroke-linejoin:round;stroke-miterlimit:4;stroke-dasharray:none;stroke-dashoffset:0;stroke-opacity:1;paint-order:fill markers stroke" />
      <path
         inkscape:connector-curvature="0"
         id="path5923"
         d="m -142.62168,-363.82016 a 10.847917,9.7234384 52.846745 0 0 -1.19822,14.51849 10.847917,9.7234384 52.846745 0 0 14.3014,2.77358 10.847917,9.7234384 52.846745 0 0 1.19822,-14.5185 10.847917,9.7234384 52.846745 0 0 -14.3014,-2.77357 z m 19.08456,-14.46143 a 10.847917,9.7234384 52.846745 0 0 -1.19821,14.5185 10.847917,9.7234384 52.846745 0 0 14.30139,2.77358 10.847917,9.7234384 52.846745 0 0 1.19821,-14.5185 10.847917,9.7234384 52.846745 0 0 -14.30139,-2.77358 z"
         style="opacity:1;vector-effect:none;fill:#000000;fill-opacity:1;stroke:none;stroke-width:1;stroke-linecap:round;stroke-linejoin:round;stroke-miterlimit:4;stroke-dasharray:none;stroke-dashoffset:0;stroke-opacity:1;paint-order:fill markers stroke" />
      <path
         inkscape:connector-curvature="0"
         id="path5927"
         transform="matrix(0.21087898,-0.15979486,0.15979486,0.21087898,-64.100662,16.477279)"
         d="m 318.19727,-1840.5508 c -4.89083,0.058 -9.76563,0.4674 -14.57032,1.3809 -9.6105,1.8273 -18.96481,5.7647 -26.25586,12.2871 -9.72582,8.7006 -15.20144,21.6774 -15.71484,34.7168 -0.51327,13.0395 3.71334,26.0513 10.89453,36.9472 10.78952,16.371 27.71848,27.8001 45.47461,36.1153 17.75608,8.3152 36.64705,13.9143 54.80273,21.3164 12.09861,4.9326 24.10144,10.8266 33.43946,19.9648 4.55068,4.4535 8.42567,9.6751 10.83594,15.5684 2.41044,5.8934 3.30274,12.4849 1.97851,18.7129 -0.97719,4.5962 -3.17091,8.9565 -6.42969,12.3418 -3.25874,3.3854 -7.59268,5.7632 -12.23437,6.4941 -3.62921,0.5714 -7.37886,0.1437 -10.88086,-0.9668 -3.50192,-1.1105 -6.76585,-2.8883 -9.77344,-4.998 -6.0155,-4.2192 -10.99081,-9.7224 -16.39258,-14.7031 -10.18611,-9.3921 -22.44121,-17.1627 -36.13281,-19.2852 -6.84597,-1.0614 -13.96154,-0.6611 -20.52734,1.5488 -6.56572,2.2099 -12.5557,6.2718 -16.72461,11.8047 -5.93156,7.8724 -7.8515,18.3479 -6.30078,28.082 1.55079,9.7342 6.3407,18.752 12.59179,26.3731 9.94723,12.1272 23.53639,20.9235 38.08008,26.7969 14.54368,5.8733 30.06869,8.9557 45.6211,10.9902 21.3315,2.7903 43.55798,3.8518 62.70312,13.6641 3.84537,1.9704 7.59853,4.3465 10.26563,7.7461 1.33345,1.6996 2.37517,3.6443 2.92187,5.7343 0.54602,2.09 0.58461,4.3277 -0.0176,6.4024 -0.75373,2.5961 -2.49637,4.8556 -4.6914,6.4336 -2.19503,1.578 -4.82196,2.498 -7.5,2.8672 -5.35595,0.7386 -10.75947,-0.6637 -15.92578,-2.2579 -13.64282,-4.2098 -26.95363,-9.8671 -41.08594,-11.8984 -8.7711,-1.2608 -17.84473,-1.0743 -26.33203,1.4727 -8.48723,2.5471 -16.36321,7.5677 -21.53711,14.7617 -3.85977,5.3668 -6.12851,11.8083 -6.83789,18.3808 -0.70914,6.5725 0.11101,13.2704 2.04492,19.5918 3.86759,12.643 12.02725,23.5659 21.23828,33.0508 17.80432,18.334 40.69091,32.4679 65.92773,36.4981 25.5065,4.0733 51.5096,-2.248 77.32618,-1.4219 34.15547,1.0933 66.49845,14.5585 98.55273,26.4043 9.16792,3.3881 18.60683,6.6953 28.38086,6.6953 4.88676,-3e-4 9.81112,-0.8572 14.26562,-2.8672 4.45452,-2.01 8.42362,-5.2107 11.01563,-9.3535 2.78127,-4.4457 3.8829,-9.9858 2.67187,-15.0879 -0.97643,-4.1141 -3.34855,-7.7702 -6.06835,-11.0078 -2.71981,-3.2374 -5.7981,-6.1522 -8.75782,-9.1719 -8.50093,-8.6732 -16.31111,-18.0216 -23.33398,-27.9297 -4.9141,-6.933 -9.44403,-14.1423 -13.48633,-21.6172 -8.2932,-15.3355 -14.57073,-32.0167 -16.06641,-49.3867 -1.53458,-17.8224 2.08955,-36.0141 10.03125,-52.0429 7.88813,-15.9206 19.77204,-29.4938 28.88868,-44.7442 6.4382,-10.77 11.55814,-22.6862 12.17382,-35.2187 0.34512,-7.0203 -0.76419,-14.1583 -3.63867,-20.5723 -2.87452,-6.4141 -7.55922,-12.073 -13.5625,-15.7285 -4.66521,-2.8404 -10.08082,-4.4405 -15.54101,-4.5664 -5.46041,-0.1257 -10.95045,1.2249 -15.71875,3.8886 -6.08774,3.4006 -10.85528,8.8139 -14.49805,14.7598 -3.64303,5.9459 -6.25244,12.4561 -8.87305,18.918 -5.4423,13.42 -11.34986,27.2734 -22.18554,36.8808 -1.9013,1.6857 -3.96319,3.2358 -6.30469,4.2227 -2.3415,0.9868 -4.99671,1.3772 -7.44922,0.7129 -1.65717,-0.4471 -3.17232,-1.3644 -4.40234,-2.5606 -1.22986,-1.1963 -2.17921,-2.6667 -2.84961,-4.246 -1.3411,-3.1589 -1.559,-6.6892 -1.33008,-10.1133 0.48339,-7.2312 2.86818,-14.2184 5.92187,-20.791 3.0537,-6.5726 6.7833,-12.8053 10.15821,-19.2188 7.32468,-13.92 12.96132,-28.6585 18.30273,-43.4531 3.51039,-9.7228 6.92546,-19.5971 7.99414,-29.8789 1.0687,-10.2817 -0.39936,-21.1423 -6.03125,-29.8106 -5.4305,-8.3584 -14.55794,-14.126 -24.38086,-15.8183 -9.823,-1.6924 -20.21011,0.6169 -28.60547,5.9902 -6.87154,4.3978 -12.44343,10.8032 -15.83203,18.2246 -4.05532,8.8812 -4.9299,18.8229 -6.20898,28.502 -0.54151,4.0971 -1.18786,8.2574 -3.00196,11.9707 -0.90706,1.8566 -2.10676,3.585 -3.6289,4.9824 -1.52239,1.3973 -3.37526,2.4565 -5.38867,2.9219 -2.83458,0.6553 -5.86598,0.101 -8.48047,-1.1758 -2.61449,-1.2766 -4.84454,-3.2381 -6.76953,-5.4199 -5.06001,-5.7348 -8.10309,-12.9699 -10.33399,-20.2852 -2.23099,-7.3154 -3.73695,-14.8466 -6.19726,-22.0879 -7.23939,-21.3078 -22.69235,-39.3576 -41.58789,-51.5801 -18.89547,-12.2225 -41.07244,-18.8465 -63.46094,-21.123 -4.86563,-0.4946 -9.77126,-0.7883 -14.66211,-0.7305 z m 717.14253,0 c -4.8908,-0.058 -9.7964,0.2359 -14.6621,0.7305 -22.38846,2.2765 -44.56541,8.9005 -63.4609,21.123 -18.89553,12.2225 -34.34851,30.2723 -41.58789,51.5801 -2.46032,7.2413 -3.96628,14.7725 -6.19727,22.0879 -2.23089,7.3153 -5.27399,14.5505 -10.33398,20.2852 -1.925,2.1818 -4.15504,4.1433 -6.76954,5.4199 -2.61449,1.2768 -5.64588,1.8311 -8.48046,1.1758 -2.01342,-0.4653 -3.86629,-1.5246 -5.38868,-2.9219 -1.52227,-1.3973 -2.72192,-3.1258 -3.6289,-4.9824 -1.8141,-3.7133 -2.46046,-7.8736 -3.00196,-11.9707 -1.27909,-9.6791 -2.15367,-19.6208 -6.20898,-28.502 -3.3886,-7.4214 -8.9605,-13.8268 -15.83203,-18.2246 -8.39536,-5.3733 -18.78247,-7.6826 -28.60547,-5.9902 -9.82292,1.6922 -18.95039,7.4598 -24.38086,15.8183 -5.63192,8.6684 -7.09996,19.5289 -6.03125,29.8106 1.06867,10.2818 4.48375,20.1561 7.99414,29.8789 5.34141,14.7946 10.97802,29.5331 18.30274,43.4531 3.3749,6.4135 7.10451,12.6462 10.1582,19.2188 3.0537,6.5726 5.43849,13.5598 5.92187,20.791 0.22893,3.4241 0.011,6.9544 -1.33007,10.1133 -0.67043,1.5793 -1.61976,3.0497 -2.84961,4.246 -1.22992,1.1963 -2.74604,2.1123 -4.40235,2.5606 -2.45249,0.6643 -5.1077,0.2739 -7.44922,-0.7129 -2.3415,-0.9869 -4.40338,-2.537 -6.30468,-4.2227 -10.83569,-9.6073 -16.74325,-23.4608 -22.18555,-36.8808 -2.62061,-6.4619 -5.23003,-12.9721 -8.87305,-18.918 -3.64277,-5.9459 -8.41045,-11.359 -14.49804,-14.7598 -4.7683,-2.6637 -10.25835,-4.0143 -15.71875,-3.8886 -5.46019,0.1259 -10.87581,1.726 -15.54102,4.5664 -6.00329,3.6555 -10.688,9.3144 -13.5625,15.7285 -2.87448,6.414 -3.98378,13.552 -3.63867,20.5723 0.6157,12.5325 5.73564,24.4487 12.17383,35.2187 9.11662,15.2504 21.00055,28.8235 28.88867,44.7442 7.94172,16.0287 11.56586,34.2205 10.03125,52.0429 -1.49568,17.37 -7.77322,34.0512 -16.06641,49.3867 -4.04229,7.4749 -8.57224,14.6842 -13.48633,21.6172 -7.02289,9.9081 -14.83307,19.2565 -23.33398,27.9297 -2.95972,3.0197 -6.03801,5.9345 -8.75781,9.1719 -2.71981,3.2376 -5.09192,6.8936 -6.06836,11.0078 -1.21102,5.1021 -0.1094,10.6422 2.67187,15.0879 2.59202,4.1428 6.56112,7.3435 11.01563,9.3535 4.45451,2.01 9.37883,2.8669 14.26562,2.8672 9.77402,0 19.21296,-3.3072 28.38086,-6.6953 32.0543,-11.8458 64.39724,-25.311 98.55274,-26.4043 25.81658,-0.8261 51.81965,5.4952 77.32617,1.4219 25.2368,-4.0302 48.12342,-18.1641 65.92773,-36.4981 9.21105,-9.4849 17.37065,-20.4078 21.23825,-33.0508 1.934,-6.3215 2.7541,-13.0193 2.045,-19.5918 -0.7094,-6.5725 -2.9782,-13.014 -6.8379,-18.3808 -5.1741,-7.1939 -13.0499,-12.2146 -21.53714,-14.7617 -8.48731,-2.547 -17.56095,-2.7335 -26.33204,-1.4727 -14.13229,2.0313 -27.44311,7.6886 -41.08593,11.8984 -5.1663,1.5942 -10.5698,2.9965 -15.92578,2.2579 -2.67802,-0.3692 -5.305,-1.2892 -7.5,-2.8672 -2.19506,-1.578 -3.93782,-3.8374 -4.69141,-6.4336 -0.60221,-2.0747 -0.56357,-4.3124 -0.0176,-6.4024 0.54672,-2.09 1.58841,-4.0347 2.92188,-5.7343 2.66708,-3.3996 6.42044,-5.7754 10.26562,-7.7461 19.14513,-9.8123 41.37162,-10.8738 62.70313,-13.6641 15.5524,-2.0345 31.07737,-5.117 45.62107,-10.9902 14.5437,-5.8735 28.1329,-14.6697 38.0801,-26.7969 6.2511,-7.6211 11.041,-16.6389 12.5918,-26.3731 1.5507,-9.7341 -0.3692,-20.2096 -6.3008,-28.082 -4.1689,-5.5329 -10.1589,-9.5948 -16.7246,-11.8047 -6.5658,-2.2099 -13.6813,-2.6102 -20.5273,-1.5488 -13.6916,2.1225 -25.9467,9.8931 -36.13285,19.2852 -5.40177,4.9807 -10.37708,10.484 -16.39258,14.7031 -3.00769,2.1096 -6.27151,3.8875 -9.77344,4.998 -3.50197,1.1105 -7.25166,1.5382 -10.88086,0.9668 -4.6417,-0.7309 -8.97563,-3.1087 -12.23437,-6.4941 -3.25878,-3.3853 -5.45249,-7.7456 -6.42969,-12.3418 -1.32421,-6.228 -0.4319,-12.8195 1.97852,-18.7129 2.41027,-5.8933 6.28525,-11.1149 10.83593,-15.5684 9.33802,-9.1383 21.34086,-15.0322 33.43946,-19.9648 18.1557,-7.402 37.04668,-13.0012 54.80278,-21.3164 17.7561,-8.3151 34.685,-19.7444 45.4746,-36.1153 7.1812,-10.8959 11.4078,-23.9077 10.8945,-36.9472 -0.5134,-13.0394 -5.989,-26.0162 -15.7148,-34.7168 -7.2911,-6.5224 -16.6454,-10.4597 -26.2559,-12.2871 -4.8047,-0.9135 -9.6795,-1.3233 -14.5703,-1.3809 z"
         style="opacity:1;fill:#985a2a;fill-opacity:1;stroke:none;stroke-width:1.00000012px;stroke-linecap:butt;stroke-linejoin:miter;stroke-opacity:1" />
    </g>
  </g>
</svg>
