<?xml version="1.0" encoding="UTF-8" standalone="no"?>
<!-- Created with Inkscape (http://www.inkscape.org/) -->

<svg
   xmlns:dc="http://purl.org/dc/elements/1.1/"
   xmlns:cc="http://creativecommons.org/ns#"
   xmlns:rdf="http://www.w3.org/1999/02/22-rdf-syntax-ns#"
   xmlns:svg="http://www.w3.org/2000/svg"
   xmlns="http://www.w3.org/2000/svg"
   xmlns:sodipodi="http://sodipodi.sourceforge.net/DTD/sodipodi-0.dtd"
   xmlns:inkscape="http://www.inkscape.org/namespaces/inkscape"
   width="500mm"
   height="500mm"
   viewBox="0 0 500 500"
   version="1.1"
   id="svg10539"
   inkscape:version="0.92.1 r15371"
   sodipodi:docname="snowman_face_b.svg">
  <defs
     id="defs10533">
    <inkscape:path-effect
       effect="spiro"
       id="path-effect5337"
       is_visible="true" />
    <inkscape:path-effect
       effect="skeletal"
       id="path-effect5339"
       is_visible="true"
       pattern="M 0,5 C 0,2.24 2.24,0 5,0 7.76,0 10,2.24 10,5 10,7.76 7.76,10 5,10 2.24,10 0,7.76 0,5 Z"
       copytype="single_stretched"
       prop_scale="0.29600525"
       scale_y_rel="false"
       spacing="0"
       normal_offset="0"
       tang_offset="0"
       prop_units="false"
       vertical_pattern="false"
       fuse_tolerance="0" />
    <inkscape:path-effect
       effect="spiro"
       id="path-effect4761"
       is_visible="true" />
    <inkscape:path-effect
       effect="skeletal"
       id="path-effect4862"
       is_visible="true"
       pattern="m -42.150394,-5.8025292 a 9.2576629,9.2576629 0 0 1 -1.787412,12.9697232 9.2576629,9.2576629 0 0 1 -12.969722,-1.787412 9.2576629,9.2576629 0 0 1 1.787412,-12.9697232 9.2576629,9.2576629 0 0 1 12.969722,1.787412 z"
       copytype="repeated"
       prop_scale="0.98021553"
       scale_y_rel="false"
       spacing="10"
       normal_offset="0"
       tang_offset="0"
       prop_units="false"
       vertical_pattern="false"
       fuse_tolerance="0" />
  </defs>
  <sodipodi:namedview
     id="base"
     pagecolor="#cacaca"
     bordercolor="#666666"
     borderopacity="1.0"
     inkscape:pageopacity="0"
     inkscape:pageshadow="2"
     inkscape:zoom="0.1767767"
     inkscape:cx="613.3254"
     inkscape:cy="1112.6727"
     inkscape:document-units="mm"
     inkscape:current-layer="layer1"
     showgrid="false"
     inkscape:window-width="1366"
     inkscape:window-height="715"
     inkscape:window-x="-8"
     inkscape:window-y="-8"
     inkscape:window-maximized="1" />
  <metadata
     id="metadata10536">
    <rdf:RDF>
      <cc:Work
         rdf:about="">
        <dc:format>image/svg+xml</dc:format>
        <dc:type
           rdf:resource="http://purl.org/dc/dcmitype/StillImage" />
        <dc:title></dc:title>
      </cc:Work>
    </rdf:RDF>
  </metadata>
  <g
     inkscape:label="Layer 1"
     inkscape:groupmode="layer"
     id="layer1"
     transform="translate(0,203)">
    <g
       id="g13110"
       transform="matrix(1.9762953,0,0,1.9762953,-480.61085,-43.018912)">
      <path
         inkscape:connector-curvature="0"
         id="path4998"
         transform="matrix(0.26458333,0,0,0.26458333,0,-203)"
         d="m 1396.6172,470.85352 c -16.7813,0.009 -33.5261,0.8474 -50.1367,2.625 v 0.004 c -31.8923,3.41299 -63.2866,10.28354 -93.4785,21.3711 -71.3442,26.20038 -132.6042,74.57971 -185.8692,128.79492 -12.8676,13.09715 -25.682,27.11966 -31.709,44.46289 -1.5874,4.56808 -2.6815,9.35546 -2.6562,14.1914 0.026,4.83595 1.2223,9.7369 3.9121,13.75586 1.6223,2.42405 3.7356,4.47152 5.8164,6.51563 19.444,19.10078 37.3925,39.86889 51.916,62.93359 7.4362,11.80932 13.9356,24.16562 19.6641,36.88672 34.8645,-20.41012 69.1362,-42.0082 106.0957,-58.25781 45.4488,-19.98175 94.0536,-31.40234 143.5234,-36.45313 33.8478,-3.45584 68.1002,-3.93031 102.0215,-2.125 55.9528,2.97791 111.4178,11.93011 167.2012,17.12891 -0.2521,-2.46102 -0.6637,-7.97394 -0.7735,-10.86133 -0.644,-17.57056 1.6657,-35.11079 4.4414,-52.47265 3.0198,-18.88795 6.5961,-37.68289 9.8086,-56.53907 1.4985,-8.7949 2.9228,-17.64866 2.9239,-26.57031 9e-4,-8.92165 -1.4816,-17.98293 -5.5215,-25.9375 -4.3936,-8.65075 -11.5695,-15.56471 -19.1543,-21.61523 -33.3838,-26.63083 -75.8584,-38.98633 -117.8106,-46.9668 -36.2047,-6.88714 -73.2959,-10.88987 -110.2148,-10.87109 z m 134.7617,274.73242 c -0.4352,-7.9e-4 -0.8728,0.004 -1.3086,0.004 -2.6734,8.8e-4 -5.3568,0.0198 -8.0508,0.0566 -0.4627,0.006 -0.9233,0.009 -1.3867,0.0156 -2.893,0.0462 -5.8004,0.12068 -8.7168,0.20898 -0.5326,0.0162 -1.0642,0.0299 -1.5976,0.0469 -2.8859,0.0948 -5.7851,0.21307 -8.6934,0.34961 -0.6053,0.0276 -1.2101,0.0582 -1.8164,0.0879 -2.8756,0.14334 -5.763,0.30763 -8.6602,0.49219 -0.5733,0.0374 -1.1466,0.0757 -1.7207,0.11523 -2.9919,0.19875 -5.9952,0.41472 -9.0097,0.6582 -0.4121,0.032 -0.8256,0.0705 -1.2383,0.10157 -3.2084,0.26527 -6.4246,0.54913 -9.6582,0.86523 -2.0233,0.19654 -4.0512,0.40347 -6.084,0.62109 v -0.004 c -37.1713,3.98167 -75.9631,11.33854 -116.1211,22.54687 -2.2736,0.63454 -4.5385,1.28554 -6.7969,1.94727 -0.76,0.22276 -1.5171,0.45194 -2.2754,0.67773 -1.5748,0.4688 -3.1457,0.94204 -4.7129,1.42383 -0.7824,0.24053 -1.5631,0.48291 -2.3437,0.72656 -1.6099,0.50273 -3.2167,1.01323 -4.8184,1.5293 -0.6684,0.21542 -1.3368,0.4288 -2.0039,0.64648 -2.1588,0.70454 -4.3115,1.41818 -6.455,2.14649 -0.1966,0.0673 -0.3933,0.13221 -0.5899,0.19922 -2.1012,0.71655 -4.1949,1.44865 -6.2812,2.1875 -0.7773,0.27527 -1.5511,0.5557 -2.3262,0.83398 -1.4226,0.51086 -2.8423,1.02394 -4.2578,1.54492 -0.8558,0.31497 -1.7093,0.63246 -2.5625,0.95118 -1.55,0.57884 -3.0955,1.16493 -4.6367,1.75586 -0.5837,0.22374 -1.1696,0.4445 -1.752,0.66992 -4.3665,1.69 -8.6954,3.4268 -12.9902,5.20898 -0.682,0.28304 -1.3609,0.57021 -2.041,0.85547 -1.5009,0.62941 -2.9984,1.26209 -4.4903,1.90234 -0.6998,0.30035 -1.3978,0.6035 -2.0957,0.90625 -1.5537,0.67392 -3.1027,1.35556 -4.6465,2.04102 -0.5788,0.25703 -1.1588,0.51093 -1.7363,0.76953 -4.2401,1.89893 -8.4428,3.84057 -12.6055,5.82227 -0.4834,0.23021 -0.9629,0.46206 -1.4453,0.69336 -1.6881,0.80927 -3.3718,1.62496 -5.0469,2.44726 -0.4447,0.21831 -0.8882,0.43693 -1.332,0.65625 -1.6894,0.83443 -3.3711,1.67613 -5.0469,2.52344 -0.4322,0.21853 -0.8655,0.43495 -1.2968,0.6543 -4.2529,2.16299 -8.4617,4.36787 -12.625,6.60937 -0.015,0.0113 -0.026,0.0123 -0.041,0.0195 -2.0393,1.09813 -4.0666,2.20832 -6.084,3.32422 -0.2,0.11089 -0.3997,0.22114 -0.5996,0.33203 -2.0214,1.12103 -4.0343,2.24847 -6.0332,3.38672 -6.2982,3.58622 -12.4826,7.25712 -18.5528,11 -11.4795,7.07811 -22.5281,14.42282 -33.1465,21.95117 -1.2562,0.89082 -2.5043,1.78362 -3.748,2.67969 -1.2128,0.87351 -2.4302,1.74473 -3.6309,2.62305 l -0.01,0.002 c -1.9987,1.46219 -3.9783,2.93191 -5.9434,4.40625 -1.2938,0.97065 -2.5764,1.94445 -3.8555,2.91992 -1.1088,0.84582 -2.2089,1.69358 -3.3066,2.54297 -1.0049,0.7774 -2.0299,1.54992 -3.0254,2.33008 -2.6458,-8.37898 -2.2379,-6.78789 0,0 -33.5777,26.31534 -61.7855,54.17395 -83.4532,80.79687 -12.7598,16.29122 -1.3849,39.84782 9.1582,44.95904 l 67.0645,28.6894 c 6.3537,3.8631 18.3269,-4.0694 22.6074,-13.6074 45.5339,-106.79488 155.5595,-187.73157 291.8281,-201.78908 89.0894,-9.08673 174.4495,12.01775 243.709,55.74414 4.7127,2.97909 17.237,1.80737 22.9102,-4.09766 l 45.4199,-50.50586 c 5.7268,-6.95309 -0.1945,-20.41686 -5.3926,-23.02734 -33.7345,-16.76274 -71.9564,-29.98721 -113.9961,-38.48828 4e-4,-4e-5 0,-3.9e-4 0,0.01 -3.1889,-0.6447 -6.4,-1.2617 -9.6328,-1.85156 -0.03,-0.007 -0.057,-0.009 -0.086,-0.0156 -0.03,-0.007 -0.06,-0.009 -0.09,-0.0156 -3.1562,-0.57465 -6.3337,-1.12519 -9.5312,-1.64648 -0.1357,-0.0213 -0.2723,-0.0397 -0.4082,-0.0625 -3.1648,-0.51338 -6.3482,-1.00294 -9.5527,-1.46289 -0.1259,-0.0183 -0.2508,-0.0383 -0.377,-0.0566 -3.3085,-0.47247 -6.636,-0.91937 -9.9863,-1.33399 -13.4092,-1.65948 -27.1486,-2.85286 -41.2051,-3.54297 -0.7637,-0.0376 -1.5333,-0.065 -2.2988,-0.0996 -2.6553,-0.1197 -5.3187,-0.22678 -7.9961,-0.31054 -2.3191,-0.0729 -4.6449,-0.13801 -6.9805,-0.1836 -0.781,-0.0147 -1.5648,-0.0256 -2.3477,-0.0371 -2.6966,-0.0419 -5.4008,-0.073 -8.1191,-0.0781 z m -150.7812,168.12109 a 69.964635,69.964635 0 0 0 -69.9649,69.96485 69.964635,69.964635 0 0 0 69.9649,69.96482 69.964635,69.964635 0 0 0 69.9648,-69.96482 69.964635,69.964635 0 0 0 -69.9648,-69.96485 z m 158.0468,0 a 69.964635,69.964635 0 0 0 -69.9648,69.96485 69.964635,69.964635 0 0 0 69.9648,69.96482 69.964635,69.964635 0 0 0 69.9649,-69.96482 69.964635,69.964635 0 0 0 -69.9649,-69.96485 z m 125.1465,354.83207 c -15.308,-0.2091 -28.2592,9.0936 -32.6426,24.0332 -4.9936,17.0192 2.5256,37.7474 21.3457,43.5468 8.9923,2.771 19.2094,1.4868 28.0801,-3.7558 8.8623,-5.2376 15.2615,-13.7798 17.5371,-23.2813 4.8292,-20.1632 -9.5943,-36.4392 -27.6347,-39.8593 -2.265,-0.4294 -4.4987,-0.6538 -6.6856,-0.6836 z m -400.4219,4.1562 c -17.1385,0.1789 -34.3554,12.3502 -35.3027,31.4219 -0.9837,19.8045 16.7449,37.8637 37.4531,37.5605 20.6691,-0.3024 33.0068,-18.2269 31.875,-36.5879 -1.1391,-18.4809 -14.6463,-31.7517 -32.3672,-32.373 -0.5521,-0.019 -1.1053,-0.027 -1.6582,-0.021 z m 306.5879,47.5508 c -10.8611,-0.2441 -21.1871,4.8151 -27.8945,14.4101 -10.1873,14.5732 -9.614,36.6149 6.3711,48.1133 7.6427,5.4976 17.7298,7.5486 27.7891,5.4375 10.0508,-2.1092 18.8165,-8.1232 24.0156,-16.3711 11.0163,-17.4762 2.8074,-37.6269 -13.2149,-46.7304 -5.5407,-3.1482 -11.3772,-4.7316 -17.0664,-4.8594 z m -211.623,2.4062 c -3.1363,0.05 -6.3379,0.5438 -9.5391,1.5098 -17.0163,5.135 -30.2168,22.7981 -24.7773,41.7246 5.4668,19.0217 27.9611,30.394 47.4883,23.4473 19.4817,-6.9306 25.4175,-27.8455 18.4589,-44.8809 -5.685,-13.9178 -18.0402,-22.0168 -31.6308,-21.8008 z m 105.7715,16.7481 c -5.6374,0.014 -11.2985,1.5168 -16.5196,4.5684 -1.0209,0.598 -2.0186,1.2507 -2.9882,1.955 -14.3146,10.3984 -21.1753,31.3527 -9.8438,47.4922 2.6114,3.7194 6.0589,6.9138 10.1719,9.3652 13.2501,7.8586 30.8017,6.623 42.543,-2.8632 16.0934,-13.0025 14.6768,-34.7102 2.4667,-48.4375 -7.1054,-7.9885 -16.4344,-12.1031 -25.83,-12.0801 z"
         style="opacity:1;vector-effect:none;fill:#000000;fill-opacity:1;stroke:none;stroke-width:14.16102505;stroke-linecap:round;stroke-linejoin:round;stroke-miterlimit:4;stroke-dasharray:none;stroke-dashoffset:0;stroke-opacity:1;paint-order:fill markers stroke" />
      <path
         inkscape:connector-curvature="0"
         id="path4973"
         d="m 360.81126,-15.757711 c -13.08889,1.336353 -25.94904,4.358083 -37.97402,9.6449224 -9.77887,4.2993756 -18.84659,10.0139919 -28.07117,15.4141705 1.91097,4.2436771 3.49746,8.6410201 4.84216,13.0980771 0.68354,2.265539 1.31093,4.552793 2.05207,6.798886 0.2634,-0.206417 0.53453,-0.410539 0.80041,-0.616226 0.29043,-0.224736 0.58121,-0.449402 0.87458,-0.673189 0.33843,-0.258095 0.67799,-0.515375 1.02032,-0.772192 0.51992,-0.390085 1.04344,-0.779314 1.57225,-1.166185 5.3e-4,-5.4e-5 10e-4,-1.34e-4 0.002,-2.15e-4 0.31769,-0.232387 0.63933,-0.463262 0.96021,-0.694378 0.32906,-0.237086 0.65957,-0.473362 0.99195,-0.709057 2.80945,-1.991878 5.73283,-3.934672 8.77013,-5.807422 1.60608,-0.990303 3.24237,-1.961588 4.90875,-2.910442 0.52891,-0.301161 1.06135,-0.599838 1.59617,-0.896443 0.0529,-0.02934 0.10585,-0.0586 0.1588,-0.08792 0.53377,-0.295248 1.0698,-0.588547 1.60937,-0.879095 0.003,-0.003 0.007,-0.0039 0.0109,-0.0056 1.10154,-0.593065 2.21502,-1.175992 3.34025,-1.748283 0.11412,-0.05804 0.22897,-0.115402 0.34333,-0.173223 0.4434,-0.224186 0.88839,-0.446964 1.33537,-0.667739 0.11743,-0.05803 0.23496,-0.115907 0.35264,-0.173668 0.44319,-0.217569 0.88819,-0.433327 1.33485,-0.647446 0.12762,-0.0612 0.25489,-0.122596 0.3828,-0.183503 1.10137,-0.524323 2.21311,-1.0380303 3.33497,-1.5404563 0.1528,-0.068421 0.30652,-0.1357932 0.45969,-0.2038001 0.40844,-0.1813607 0.81785,-0.3617032 1.22894,-0.5400095 0.18464,-0.080104 0.36956,-0.160023 0.55473,-0.2394897 0.39472,-0.1694004 0.79089,-0.3370872 1.18799,-0.5036197 0.17995,-0.075476 0.35957,-0.1511568 0.54001,-0.2260443 1.13633,-0.4715364 2.28191,-0.9313043 3.43722,-1.3784495 0.15408,-0.059643 0.30903,-0.1179911 0.46344,-0.1771889 0.40781,-0.1562952 0.81669,-0.3112907 1.22679,-0.4644431 0.22574,-0.084327 0.45174,-0.1682546 0.67817,-0.2515882 0.37453,-0.1378436 0.75008,-0.2738776 1.12648,-0.4090408 0.20509,-0.073628 0.40971,-0.147899 0.61535,-0.2207319 0.552,-0.195487 1.10593,-0.3889103 1.66187,-0.578497 0.052,-0.017809 0.10412,-0.0351 0.15616,-0.052833 0.56714,-0.1926982 1.13642,-0.3817051 1.7076,-0.5681132 0.17649,-0.057596 0.35369,-0.1140408 0.53056,-0.1710368 0.42377,-0.1365424 0.84853,-0.271404 1.27447,-0.4044181 0.20653,-0.064466 0.41332,-0.1285066 0.62035,-0.1921464 0.41465,-0.1274728 0.83051,-0.2526488 1.24718,-0.3766842 0.20063,-0.059742 0.40081,-0.1204479 0.60191,-0.1793861 0.59751,-0.1750814 1.19659,-0.347636 1.79816,-0.5155246 10.62514,-2.9655392 20.88879,-4.9115814 30.7237,-5.9650642 0.53785,-0.057579 1.07431,-0.112356 1.60962,-0.1643559 0.85556,-0.083636 1.70683,-0.1585904 2.55572,-0.2287525 0.10916,-0.00849 0.21855,-0.018858 0.32755,-0.027595 0.79761,-0.064421 1.592,-0.1217053 2.38363,-0.174292 0.15192,-0.010193 0.30392,-0.020129 0.4556,-0.030032 0.76655,-0.048829 1.53018,-0.092121 2.29101,-0.1300476 0.16041,-0.00787 0.32058,-0.015712 0.48074,-0.023023 0.76949,-0.036125 1.53648,-0.067446 2.30003,-0.092538 0.14114,-0.00457 0.28167,-0.00828 0.4226,-0.012486 0.77162,-0.023363 1.54099,-0.043038 2.30644,-0.055266 0.12259,-0.00188 0.24437,-0.00261 0.36682,-0.00421 0.71279,-0.00975 1.42295,-0.01471 2.1303,-0.014941 0.11531,-7.19e-5 0.2312,-0.00127 0.34636,-0.00108 0.7192,0.00135 1.43448,0.00959 2.14797,0.020676 0.20713,0.00305 0.41456,0.00578 0.62122,0.00979 0.61796,0.012062 1.23331,0.029017 1.84691,0.048305 0.7084,0.022162 1.4128,0.051009 2.11533,0.082679 0.20255,0.00916 0.4063,0.016254 0.60836,0.026207 3.71911,0.1825916 7.35455,0.4984875 10.9024,0.9375572 0.88642,0.1097023 1.76671,0.2275053 2.64208,0.3525122 0.0333,0.00484 0.0664,0.00998 0.0997,0.014821 0.84788,0.1216965 1.69028,0.2507087 2.52764,0.3865382 0.036,0.0059 0.0718,0.011814 0.10776,0.017561 0.84601,0.137925 1.68657,0.2828962 2.52167,0.43494 0.008,0.00185 0.0159,0.0029 0.0238,0.00422 0.008,0.00188 0.0152,0.00297 0.0228,0.00432 0.85534,0.1560681 1.70483,0.3192498 2.54857,0.489853 -0.91224,-2.8931206 -1.5527,-5.8721308 -1.8709,-8.885855 -14.75936,-1.375515 -29.43426,-3.74381 -44.23844,-4.531714 -8.975,-0.477655 -18.03748,-0.352304 -26.99304,0.562054 z"
         style="fill:#d00000;fill-opacity:1;stroke:none;stroke-width:0.26458338px;stroke-linecap:butt;stroke-linejoin:miter;stroke-opacity:1" />
      <path
         sodipodi:nodetypes="ccccccccccc"
         inkscape:connector-curvature="0"
         id="path5005"
         d="m 370.099,120.15869 c 5.50176,4.48245 11.79458,8.91722 19.19742,8.89134 12.43382,0.29433 23.56609,-6.23069 34.26448,-11.74881 10.19248,-5.60202 20.28539,-11.54073 29.62659,-18.491907 14.33089,-10.22246 10.78864,-16.713978 -6.71953,-15.786729 -8.77256,0.450089 -17.53303,1.422028 -26.2647,2.250964 -15.74961,1.795024 -31.50116,4.136185 -46.82569,8.25558 -5.41915,1.590671 -11.80495,5.361076 -11.84929,11.735022 0.31734,5.38104 3.65647,10.16726 7.34134,13.88724 0.39619,0.3519 0.80717,0.68742 1.22935,1.00733 z"
         style="opacity:1;fill:#e48a1a;fill-opacity:1;stroke:none;stroke-width:0.29544067px;stroke-linecap:butt;stroke-linejoin:miter;stroke-opacity:1" />
    </g>
  </g>
</svg>
